<svg version="1.1" id="Слой_1" xmlns="http://www.w3.org/2000/svg" xmlns:xlink="http://www.w3.org/1999/xlink" x="0px" y="0px" viewBox="0 0 56.4 31.7" style="enable-background:new 0 0 56.4 31.7;" xml:space="preserve">
<style type="text/css">
	.st0{display:none;}
	.st1{display:inline;}
	.st2{fill:#FF6D2C;}
	.st3{fill:#E54E13;}
	.st4{fill:#FFA14D;}
	.st5{fill:#FFF0D7;}
	.st6{fill:#3A4047;}
	.st7{fill:#A2C94C;}
	.st8{fill:#95B739;}
	.st9{fill:#F74646;}
	.st10{fill:#D32A2A;}
	.st11{fill:#FF765F;}
	.st12{fill:#F45719;}
	.st13{fill:#FF7E3E;}
	.st14{fill:#FF6F27;}
	.st15{fill:#FF9B40;}
	.st16{fill:#A6CC3B;}
	.st17{fill:#8AA80B;}
	.st18{fill:#D3F45B;}
	.st19{fill:#2D2D2D;}
	.st20{fill:#232323;}
	.st21{fill:#424141;}
	.st22{fill:#595959;}
</style>
<g>
	<g class="st0">
		<path class="st1" d="M-51,8.9c0.6,0,1.2,0.1,1.7,0.4c0.5,0.3,1,0.7,1.3,1.2s0.5,1.1,0.5,1.8s-0.2,1.4-0.5,1.9s-0.8,0.9-1.3,1.2    c-0.6,0.3-1.1,0.4-1.7,0.4h-2.3v4.1h-2.3v-11C-55.6,8.9-51,8.9-51,8.9z M-50.2,13.3c0.3-0.2,0.4-0.6,0.4-1s-0.1-0.8-0.4-1    s-0.7-0.4-1.2-0.4h-1.9v2.7h1.9C-50.9,13.7-50.5,13.6-50.2,13.3z"/>
		<path class="st1" d="M-43.9,19.5c-0.6-0.4-1.1-0.9-1.5-1.5c-0.4-0.6-0.5-1.3-0.5-2.1s0.2-1.5,0.5-2.1c0.4-0.6,0.8-1.1,1.5-1.5    c0.6-0.4,1.4-0.5,2.2-0.5c0.8,0,1.5,0.2,2.2,0.5c0.6,0.4,1.1,0.9,1.5,1.5c0.4,0.6,0.5,1.4,0.5,2.1c0,0.8-0.2,1.5-0.5,2.1    c-0.4,0.6-0.8,1.1-1.5,1.5c-0.6,0.4-1.4,0.5-2.2,0.5C-42.5,20-43.3,19.9-43.9,19.5z M-40.4,17.4c0.4-0.4,0.5-0.9,0.5-1.5    s-0.2-1.1-0.5-1.5c-0.4-0.4-0.8-0.6-1.4-0.6c-0.6,0-1,0.2-1.4,0.6c-0.4,0.4-0.5,0.9-0.5,1.5s0.2,1.1,0.5,1.5    c0.5,0.4,0.9,0.6,1.5,0.6l0,0C-41.2,18-40.7,17.8-40.4,17.4z"/>
		<path class="st1" d="M-34.7,11.9h6v8H-31V14h-1.4v3.8c0,0.6-0.2,1.1-0.6,1.5s-1,0.6-1.6,0.6H-36V18h0.5c0.4,0,0.6-0.1,0.7-0.2    c0.1-0.1,0.2-0.4,0.2-0.7L-34.7,11.9L-34.7,11.9z"/>
		<path class="st1" d="M-25.6,11.9h6v8H-22V14h-1.4v3.8c0,0.6-0.2,1.1-0.6,1.5s-1,0.6-1.6,0.6H-27V18h0.5c0.4,0,0.6-0.1,0.7-0.2    c0.1-0.1,0.2-0.4,0.2-0.7V11.9z"/>
		<path class="st1" d="M-17.7,19.9v-8h2.4v2.8h1.4c0.5,0,1,0.1,1.4,0.3s0.8,0.5,1.1,0.8c0.3,0.4,0.4,0.9,0.4,1.5s-0.1,1-0.4,1.4    c-0.3,0.4-0.6,0.6-1.1,0.8s-0.9,0.3-1.4,0.3h-3.8V19.9z M-14.4,16.5h-0.9v1.6h0.9c0.4,0,0.7-0.1,0.9-0.2c0.2-0.1,0.3-0.3,0.3-0.6    s-0.1-0.5-0.3-0.7C-13.7,16.6-14,16.5-14.4,16.5z M-10.1,19.9v-8h2.3v8H-10.1z"/>
	</g>
	<g>
		<g>
			<g>
				<g>
					<g>
						<path class="st2" d="M19.1,17.3l-18,0.3V28c0,0.1,0,0.3,0,0.4c0,0.7,1,1.2,2.8,1.6c1.6,0.3,3.8,0.5,6.1,0.5s4.5-0.2,6.1-0.5        c1.9-0.4,2.8-0.9,2.8-1.7l0,0c0-0.1,0-0.2,0-0.4V17.3H19.1z"/>
					</g>
					<g>
						<path class="st3" d="M19.1,27.9c-0.3,0.1-0.7,0.2-1.2,0.3c-1.6,0.3-3.8,0.5-6.1,0.5s-4.5-0.2-6.1-0.5        c-1.9-0.4-2.8-0.9-2.8-1.6c0-0.1,0-0.3,0-0.4v-8.6l-1.7-0.3v10.6c0,0.1,0,0.3,0,0.4c0,0.7,1,1.2,2.8,1.6        c1.6,0.3,3.8,0.5,6.1,0.5s4.5-0.2,6.1-0.5c1.9-0.4,2.8-0.9,2.8-1.7l0,0C19.1,28.2,19.1,28.1,19.1,27.9L19.1,27.9z"/>
					</g>
					<g>
						<path class="st4" d="M19.1,27.7c-0.8-0.7-1.4-1.9-1.4-3.2s0.6-2.5,1.4-3.2v-0.7c-1.1,0.8-1.9,2.2-1.9,3.8s0.7,3.1,1.9,3.8        C19.1,28.1,19.1,27.7,19.1,27.7z"/>
					</g>
					<g>
						<path class="st4" d="M8.1,17C8,17,5.9,17.7,4,19.3c-1.1,0.9-1.9,2.1-2.9,3.7v1c2.2-4.2,7.1-6.5,7.2-6.5L8.1,17z"/>
					</g>
					<g>
						<path class="st4" d="M16,30c-0.6-0.4-1-0.9-1.3-1.5C13,24.7,18.1,18,18.2,17.9l-0.4-0.3c-0.2,0.3-5.5,6.5-4,10.4        c0.3,0.7,0.8,1.5,1.5,2.1C15.5,30.1,15.8,30.1,16,30z"/>
					</g>
					<g>
						<path class="st4" d="M15.3,17.9c-0.3,0.3-7.6,6.2-7.1,10.3c0.1,0.7,0.4,1.6,0.8,2.2c0.2,0,0.5,0,0.7,0        c-0.5-0.6-0.8-1.3-0.9-1.9c-0.7-3.8,6.5-10.3,6.6-10.4L15.3,17.9z"/>
					</g>
					<g>
						<path class="st4" d="M12.1,17.7c0,0-2.5,1.6-4.6,3.7c-2.8,2.8-4.3,5-4.6,7c-0.1,0.4,0,0.9,0.1,1.4c0.2,0,0.4,0.1,0.7,0.2        c-0.1-0.5-0.1-1-0.1-1.5c0.6-4.6,8.6-10.3,8.7-10.4L12.1,17.7z"/>
					</g>
					<g>
						<ellipse class="st5" cx="10.2" cy="17.3" rx="8.6" ry="1.5"/>
					</g>
					<g>
						<g>
							<path class="st3" d="M10.1,19.5c-2.3,0-4.5-0.2-6.2-0.5c-1.9-0.4-2.8-0.9-2.8-1.7c0-0.7,0.8-1,2.7-1.4         c1.7-0.3,3.9-0.5,6.2-0.5s4.6,0.1,6.2,0.5c1.9,0.4,2.8,0.8,2.8,1.5s-0.9,1.3-2.8,1.7C14.6,19.4,12.4,19.5,10.1,19.5z          M10.1,16c-5.2,0-8.1,0.9-8.2,1.4c0.1,0.5,3.1,1.4,8.2,1.4c5.2,0,8.1-0.9,8.2-1.4C18.2,16.9,15.3,16,10.1,16z"/>
						</g>
					</g>
					<g>
						<path class="st6" d="M10.1,18.1c-0.2,0-5.7,0-5.7-0.9s5.4-0.9,5.7-0.9s5.7,0,5.7,0.9S10.3,18.1,10.1,18.1z M10.1,16.6        c-3.4,0-5.3,0.4-5.4,0.6c0.1,0.2,2,0.6,5.4,0.6s5.3-0.4,5.4-0.6C15.4,17,13.5,16.6,10.1,16.6z"/>
					</g>
				</g>
				<ellipse class="st2" cx="10.1" cy="17.2" rx="2.8" ry="0.3"/>
				<g>
					<polygon class="st7" points="7.5,17.8 4.2,17.8 4.8,17.2 6.9,17.2      "/>
					<rect x="4.2" y="17.8" class="st8" width="3.3" height="0.3"/>
				</g>
				<g>
					<polygon class="st7" points="15.5,17 12.3,17 12.8,16.4 15,16.4      "/>
					<rect x="12.3" y="17" class="st8" width="3.3" height="0.3"/>
				</g>
			</g>
			<ellipse transform="matrix(0.9726 -0.2325 0.2325 0.9726 -3.587 1.8859)" class="st5" cx="6.2" cy="16.2" rx="0.6" ry="0.3"/>
			
				<ellipse transform="matrix(1 -2.522843e-03 2.522843e-03 1 -4.196731e-02 4.195887e-02)" class="st5" cx="16.6" cy="16.7" rx="0.6" ry="0.3"/>
			
				<ellipse transform="matrix(1 -2.522838e-03 2.522838e-03 1 -4.246927e-02 4.422974e-02)" class="st5" cx="17.5" cy="16.9" rx="0.6" ry="0.3"/>
			<path class="st5" d="M18.7,17.2c0-0.1-0.3-0.3-0.6-0.3H18c0.1,0,0.1-0.1,0.1-0.1c0-0.1-0.3-0.3-0.6-0.3c-0.2,0-0.3,0-0.4,0.1     v-0.1c0-0.1-0.3-0.3-0.6-0.3c-0.1,0-0.2,0-0.3,0s-0.3-0.1-0.5-0.1h-0.1l0,0c0-0.1-0.3-0.3-0.6-0.3c-0.1,0-0.3,0-0.4,0.1     c-0.1,0-0.3-0.1-0.4-0.1c-0.1,0-0.3,0-0.4,0c-0.1,0-0.2-0.1-0.3-0.1c-0.1-0.1-0.3-0.2-0.6-0.2s-0.6,0.1-0.6,0.2     c-0.1,0-0.2,0-0.3,0s-0.3,0-0.4,0.1c-0.1-0.1-0.3-0.2-0.6-0.2c-0.2,0-0.3,0-0.4,0.1c-0.1-0.1-0.3-0.2-0.6-0.2s-0.5,0.1-0.6,0.2     c-0.1,0-0.2,0-0.3,0c-0.3,0-0.6,0.1-0.6,0.2c-0.1,0-0.2,0-0.3,0c-0.2,0-0.3,0-0.4,0.1v-0.1c0-0.1-0.3-0.2-0.7-0.1     c-0.1,0-0.3,0.1-0.4,0.1c-0.1-0.1-0.4-0.1-0.7-0.1c-0.1,0-0.3,0.1-0.4,0.2c-0.1,0-0.3,0-0.5,0c-0.2,0.1-0.4,0.2-0.5,0.3     c-0.1,0-0.2,0-0.4,0H4.1c-0.1-0.1-0.3-0.2-0.7-0.1c-0.3,0.1-0.6,0.3-0.6,0.4l0,0c-0.1,0-0.2,0-0.3,0c-0.3,0.1-0.6,0.3-0.6,0.4     c0,0.1,0.3,0.2,0.7,0.1c0.3-0.1,0.6-0.3,0.6-0.4l0,0c0.1,0,0.2,0,0.3,0h0.1c0.1,0.1,0.3,0.2,0.7,0.1c0.2-0.1,0.4-0.2,0.5-0.3     c0.1,0,0.2,0,0.4,0c0.1,0,0.3-0.1,0.4-0.2c0.1,0,0.3,0,0.5,0c0.1,0,0.3-0.1,0.4-0.1c0.1,0.1,0.4,0.1,0.7,0.1     c0.1,0,0.2-0.1,0.3-0.1l0,0c0,0.1,0.3,0.3,0.6,0.3c0.3,0,0.6-0.1,0.6-0.2c0.1,0,0.2,0,0.3,0c0.1,0,0.3,0,0.4-0.1     c0.1,0.1,0.3,0.2,0.6,0.2s0.5-0.1,0.6-0.2c0.1,0,0.2,0,0.3,0s0.3,0,0.4-0.1c0.1,0.1,0.3,0.2,0.6,0.2s0.6-0.1,0.6-0.2h0.1     c0.1,0.1,0.3,0.2,0.6,0.2c0.1,0,0.3,0,0.4,0c0.1,0.1,0.3,0.1,0.5,0.1c0.1,0,0.3,0,0.4-0.1c0.1,0,0.3,0.1,0.4,0.1H15l0,0     c0,0.1,0.3,0.3,0.6,0.3c0.1,0,0.2,0,0.3,0s0.3,0.1,0.5,0.1s0.3,0,0.4-0.1v0.1c0,0.1,0.3,0.3,0.6,0.3h0.1c-0.1,0-0.1,0.1-0.1,0.1     l0,0c-0.1,0-0.2,0.1-0.2,0.2c0,0.1,0.3,0.3,0.6,0.3c0.4,0,0.6-0.1,0.6-0.3l0,0C18.6,17.3,18.7,17.2,18.7,17.2z"/>
		</g>
		<g>
			<g>
				<g>
					<path class="st9" d="M55.1,17.3l-18,0.3V28c0,0.1,0,0.3,0,0.4c0,0.7,1,1.2,2.8,1.6c1.6,0.3,3.8,0.5,6.1,0.5s4.5-0.2,6.1-0.5       c1.9-0.4,2.8-0.9,2.8-1.7l0,0c0-0.1,0-0.2,0-0.4V17.3H55.1z"/>
				</g>
				<g>
					<path class="st10" d="M55.1,27.9c-0.3,0.1-0.7,0.2-1.2,0.3c-1.6,0.3-3.8,0.5-6.1,0.5c-2.3,0-4.5-0.2-6.1-0.5       c-1.9-0.4-2.8-0.9-2.8-1.6c0-0.1,0-0.3,0-0.4v-8.6l-1.7-0.3v10.6c0,0.1,0,0.3,0,0.4c0,0.7,1,1.2,2.8,1.6       c1.6,0.3,3.8,0.5,6.1,0.5s4.5-0.2,6.1-0.5c1.9-0.4,2.8-0.9,2.8-1.7l0,0C55.1,28.2,55.1,28.1,55.1,27.9L55.1,27.9z"/>
				</g>
				<g>
					<path class="st11" d="M55.1,27.7c-0.8-0.7-1.4-1.9-1.4-3.2s0.6-2.5,1.4-3.2v-0.7c-1.1,0.8-1.9,2.2-1.9,3.8s0.7,3.1,1.9,3.8       C55.1,28.1,55.1,27.7,55.1,27.7z"/>
				</g>
				<g>
					<path class="st11" d="M44.1,17c-0.1,0-2.2,0.7-4.1,2.3c-1.1,0.9-1.9,2.1-2.9,3.7v1c2.2-4.2,7.1-6.5,7.2-6.5L44.1,17z"/>
				</g>
				<g>
					<path class="st11" d="M52,30c-0.6-0.4-1-0.9-1.3-1.5C49,24.7,54.1,18,54.2,17.9l-0.4-0.3c-0.2,0.3-5.5,6.5-4,10.4       c0.3,0.7,0.8,1.5,1.5,2.1C51.5,30.1,51.8,30.1,52,30z"/>
				</g>
				<g>
					<path class="st11" d="M51.3,17.9c-0.3,0.3-7.6,6.2-7.1,10.3c0.1,0.7,0.4,1.6,0.8,2.2c0.2,0,0.5,0,0.7,0       c-0.5-0.6-0.8-1.3-0.9-1.9c-0.7-3.8,6.5-10.3,6.6-10.4L51.3,17.9z"/>
				</g>
				<g>
					<path class="st11" d="M48.1,17.7c0,0-2.5,1.6-4.6,3.7c-2.8,2.8-4.3,5-4.6,7c-0.1,0.4,0,0.9,0.1,1.4c0.2,0,0.4,0.1,0.7,0.2       c-0.1-0.5-0.1-1-0.1-1.5c0.6-4.6,8.6-10.3,8.7-10.4L48.1,17.7z"/>
				</g>
				<g>
					<ellipse class="st5" cx="46.2" cy="17.3" rx="8.6" ry="1.5"/>
				</g>
				<g>
					<g>
						<path class="st10" d="M46.1,19.5c-2.3,0-4.5-0.2-6.2-0.5c-1.9-0.4-2.8-0.9-2.8-1.7c0-0.7,0.8-1,2.7-1.4        c1.7-0.3,3.9-0.5,6.2-0.5s4.6,0.1,6.2,0.5c1.9,0.4,2.8,0.8,2.8,1.5s-0.9,1.3-2.8,1.7C50.6,19.4,48.4,19.5,46.1,19.5z M46.1,16        c-5.2,0-8.1,0.9-8.2,1.4c0.1,0.5,3.1,1.4,8.2,1.4c5.2,0,8.1-0.9,8.2-1.4C54.2,16.9,51.3,16,46.1,16z"/>
					</g>
				</g>
				<g>
					<path class="st6" d="M46.1,18.1c-0.2,0-5.7,0-5.7-0.9s5.4-0.9,5.7-0.9s5.7,0,5.7,0.9S46.4,18.1,46.1,18.1z M46.1,16.6       c-3.4,0-5.3,0.4-5.4,0.6c0.1,0.2,2,0.6,5.4,0.6s5.3-0.4,5.4-0.6C51.4,17,49.5,16.6,46.1,16.6z"/>
				</g>
			</g>
			<ellipse transform="matrix(0.9726 -0.2326 0.2326 0.9726 -2.4929 11.1684)" class="st5" cx="46.1" cy="16.2" rx="0.6" ry="0.3"/>
			
				<ellipse transform="matrix(1 -2.551149e-03 2.551149e-03 1 -4.234166e-02 0.1177)" class="st5" cx="46.1" cy="16.7" rx="0.6" ry="0.3"/>
			
				<ellipse transform="matrix(1 -2.522803e-03 2.522803e-03 1 -4.237729e-02 0.1164)" class="st5" cx="46.1" cy="16.9" rx="0.6" ry="0.3"/>
			<path class="st5" d="M54.4,17.2c0-0.1-0.3-0.3-0.6-0.3h-0.1c0.1,0,0.1-0.1,0.1-0.1c0-0.1-0.3-0.3-0.6-0.3c-0.2,0-0.3,0-0.4,0.1     v-0.1c0-0.1-0.3-0.3-0.6-0.3c-0.1,0-0.2,0-0.3,0c-0.1,0-0.3-0.1-0.5-0.1h-0.1l0,0c0-0.1-0.3-0.3-0.6-0.3c-0.1,0-0.3,0-0.4,0.1     c-0.1,0-0.3-0.1-0.4-0.1s-0.3,0-0.4,0s-0.2-0.1-0.3-0.1c-0.1-0.1-0.3-0.2-0.6-0.2c-0.3,0-0.6,0.1-0.6,0.2c-0.1,0-0.2,0-0.3,0     c-0.1,0-0.3,0-0.4,0.1c-0.1-0.1-0.3-0.2-0.6-0.2c-0.2,0-0.3,0-0.4,0.1c-0.1-0.1-0.3-0.2-0.6-0.2c-0.3,0-0.5,0.1-0.6,0.2     c-0.1,0-0.2,0-0.3,0c-0.3,0-0.6,0.1-0.6,0.2c-0.1,0-0.2,0-0.3,0c-0.2,0-0.3,0-0.4,0.1v-0.1c0-0.1-0.3-0.2-0.7-0.1     c-0.1,0-0.3,0.1-0.4,0.1c-0.1-0.1-0.4-0.1-0.7-0.1c-0.1,0-0.3,0.1-0.4,0.2c-0.1,0-0.3,0-0.5,0c-0.2,0.1-0.4,0.2-0.5,0.3     c-0.1,0-0.2,0-0.4,0h-0.1c-0.1-0.1-0.3-0.2-0.7-0.1c-0.3,0.1-0.6,0.3-0.6,0.4l0,0c-0.1,0-0.2,0-0.3,0c-0.3,0.1-0.6,0.3-0.6,0.4     c0,0.1,0.3,0.2,0.7,0.1c0.3-0.1,0.6-0.3,0.6-0.4l0,0c0.1,0,0.2,0,0.3,0h0.1c0.1,0.1,0.3,0.2,0.7,0.1c0.2-0.1,0.4-0.2,0.5-0.3     c0.1,0,0.2,0,0.4,0c0.1,0,0.3-0.1,0.4-0.2c0.1,0,0.3,0,0.5,0c0.1,0,0.3-0.1,0.4-0.1c0.1,0.1,0.4,0.1,0.7,0.1     c0.1,0,0.2-0.1,0.3-0.1l0,0c0,0.1,0.3,0.3,0.6,0.3c0.3,0,0.6-0.1,0.6-0.2c0.1,0,0.2,0,0.3,0c0.1,0,0.3,0,0.4-0.1     c0.1,0.1,0.3,0.2,0.6,0.2c0.3,0,0.5-0.1,0.6-0.2c0.1,0,0.2,0,0.3,0c0.1,0,0.3,0,0.4-0.1c0.1,0.1,0.3,0.2,0.6,0.2     c0.3,0,0.6-0.1,0.6-0.2h0.1c0.1,0.1,0.3,0.2,0.6,0.2c0.1,0,0.3,0,0.4,0c0.1,0.1,0.3,0.1,0.5,0.1c0.1,0,0.3,0,0.4-0.1     c0.1,0,0.3,0.1,0.4,0.1h0.1l0,0c0,0.1,0.3,0.3,0.6,0.3c0.1,0,0.2,0,0.3,0c0.1,0,0.3,0.1,0.5,0.1s0.3,0,0.4-0.1v0.1     c0,0.1,0.3,0.3,0.6,0.3h0.1c-0.1,0-0.1,0.1-0.1,0.1l0,0c-0.1,0-0.2,0.1-0.2,0.2c0,0.1,0.3,0.3,0.6,0.3c0.4,0,0.6-0.1,0.6-0.3l0,0     C54.3,17.3,54.4,17.2,54.4,17.2z"/>
			<g>
				<g>
					<circle class="st12" cx="48.1" cy="15.2" r="1.1"/>
					<circle class="st13" cx="47.8" cy="14.9" r="0.4"/>
				</g>
				<g>
					<circle class="st12" cx="44.5" cy="15.2" r="1.1"/>
					<circle class="st13" cx="44.2" cy="14.9" r="0.4"/>
				</g>
				<g>
					<circle class="st14" cx="49" cy="16.5" r="1.1"/>
					<circle class="st15" cx="48.7" cy="16.1" r="0.4"/>
				</g>
				<g>
					<circle class="st12" cx="47.1" cy="16.5" r="1.1"/>
					<circle class="st13" cx="46.8" cy="16.1" r="0.4"/>
				</g>
				<g>
					<circle class="st14" cx="45.1" cy="16.5" r="1.1"/>
					<circle class="st15" cx="44.9" cy="16.1" r="0.4"/>
				</g>
				<g>
					<circle class="st14" cx="46.2" cy="15" r="1.1"/>
					<circle class="st15" cx="45.9" cy="14.6" r="0.4"/>
				</g>
				<g>
					<circle class="st12" cx="43.2" cy="16.5" r="1.1"/>
					<circle class="st13" cx="42.9" cy="16.1" r="0.4"/>
				</g>
			</g>
		</g>
		<g>
			<g>
				<g>
					<g>
						<path class="st16" d="M37.1,17.3l-18,0.3V28c0,0.1,0,0.3,0,0.4c0,0.7,1,1.2,2.8,1.6c1.6,0.3,3.8,0.5,6.1,0.5s4.5-0.2,6.1-0.5        c1.9-0.4,2.8-0.9,2.8-1.7l0,0c0-0.1,0-0.2,0-0.4V17.3H37.1z"/>
					</g>
					<g>
						<path class="st17" d="M37.1,27.9c-0.3,0.1-0.7,0.2-1.2,0.3c-1.6,0.3-3.8,0.5-6.1,0.5s-4.5-0.2-6.1-0.5        c-1.9-0.4-2.8-0.9-2.8-1.6c0-0.1,0-0.3,0-0.4v-8.6l-1.7-0.3v10.6c0,0.1,0,0.3,0,0.4c0,0.7,1,1.2,2.8,1.6        c1.6,0.3,3.8,0.5,6.1,0.5s4.5-0.2,6.1-0.5c1.9-0.4,2.8-0.9,2.8-1.7l0,0C37.1,28.2,37.1,28.1,37.1,27.9L37.1,27.9z"/>
					</g>
					<g>
						<ellipse class="st5" cx="28.2" cy="17.3" rx="8.6" ry="1.5"/>
					</g>
					<g>
						<g>
							<path class="st17" d="M28.1,19.5c-2.3,0-4.5-0.2-6.2-0.5c-1.9-0.4-2.8-0.9-2.8-1.7c0-0.7,0.8-1,2.7-1.4         c1.7-0.3,3.9-0.5,6.2-0.5s4.6,0.1,6.2,0.5c1.9,0.4,2.8,0.8,2.8,1.5s-0.9,1.3-2.8,1.7C32.6,19.4,30.4,19.5,28.1,19.5z          M28.1,16c-5.2,0-8.1,0.9-8.2,1.4c0.1,0.5,3.1,1.4,8.2,1.4c5.2,0,8.1-0.9,8.2-1.4C36.2,16.9,33.2,16,28.1,16z"/>
						</g>
					</g>
				</g>
				<circle class="st17" cx="21.7" cy="22.7" r="0.4"/>
				<circle class="st17" cx="20.7" cy="24.2" r="0.4"/>
				<circle class="st17" cx="21.7" cy="26.1" r="0.4"/>
				<circle class="st17" cx="23.3" cy="25.3" r="0.4"/>
				<circle class="st17" cx="22" cy="24" r="0.4"/>
				<circle class="st17" cx="23.8" cy="22.6" r="0.4"/>
				<circle class="st17" cx="20.9" cy="20.9" r="0.4"/>
				<circle class="st17" cx="21.2" cy="19.4" r="0.4"/>
				<circle class="st17" cx="24.2" cy="19.6" r="0.4"/>
				<circle class="st17" cx="22.3" cy="20.9" r="0.4"/>
				<circle class="st17" cx="25.1" cy="23.9" r="0.4"/>
				<circle class="st17" cx="23.5" cy="27.5" r="0.4"/>
				<circle class="st17" cx="22.1" cy="27.8" r="0.4"/>
				<circle class="st17" cx="27.4" cy="26.6" r="0.4"/>
				<circle class="st17" cx="25.1" cy="27.8" r="0.4"/>
				<circle class="st17" cx="26" cy="24.6" r="0.4"/>
				<circle class="st17" cx="24.7" cy="26.2" r="0.4"/>
				<circle class="st17" cx="30.1" cy="24.9" r="0.4"/>
				<circle class="st17" cx="32.3" cy="26" r="0.4"/>
				<circle class="st17" cx="29.4" cy="22.2" r="0.4"/>
				<circle class="st17" cx="29.8" cy="20.4" r="0.4"/>
				<circle class="st17" cx="31.9" cy="20.8" r="0.4"/>
				<circle class="st17" cx="26.1" cy="23" r="0.4"/>
				<circle class="st17" cx="24.5" cy="21.3" r="0.4"/>
				<circle class="st17" cx="27.2" cy="20.3" r="0.4"/>
				<circle class="st17" cx="26.1" cy="21.3" r="0.4"/>
				<circle class="st17" cx="28" cy="22.8" r="0.4"/>
				<circle class="st17" cx="27.1" cy="24.5" r="0.4"/>
				<circle class="st17" cx="26.2" cy="26.6" r="0.4"/>
				<circle class="st17" cx="27.3" cy="27.9" r="0.4"/>
				<circle class="st17" cx="28.5" cy="27.9" r="0.4"/>
				<circle class="st18" cx="29.9" cy="26.1" r="0.4"/>
				<circle class="st18" cx="28.2" cy="25.6" r="0.4"/>
				<circle class="st18" cx="30.6" cy="23.7" r="0.4"/>
				<circle class="st18" cx="28.9" cy="24.1" r="0.4"/>
				<circle class="st18" cx="30.2" cy="21.6" r="0.4"/>
				<circle class="st18" cx="28.7" cy="21.2" r="0.4"/>
				<circle class="st18" cx="24.9" cy="22.5" r="0.4"/>
				<circle class="st18" cx="31.2" cy="25.1" r="0.4"/>
				<circle class="st18" cx="23.8" cy="24.1" r="0.4"/>
				<circle class="st18" cx="30.1" cy="27.7" r="0.4"/>
				<circle class="st18" cx="23.5" cy="26.4" r="0.4"/>
				<circle class="st18" cx="32.9" cy="27.8" r="0.4"/>
				<circle class="st18" cx="34" cy="27" r="0.4"/>
				<circle class="st18" cx="35.5" cy="27.7" r="0.4"/>
				<circle class="st18" cx="31.6" cy="26.9" r="0.4"/>
				<circle class="st18" cx="32.1" cy="21.9" r="0.4"/>
				<circle class="st18" cx="31.2" cy="20.1" r="0.4"/>
				<circle class="st18" cx="33" cy="20" r="0.4"/>
				<circle class="st18" cx="35.2" cy="19.6" r="0.4"/>
				<circle class="st18" cx="36.6" cy="22.5" r="0.4"/>
				<circle class="st18" cx="34.1" cy="21.4" r="0.4"/>
				<circle class="st18" cx="33.3" cy="25.6" r="0.4"/>
				<circle class="st18" cx="35.2" cy="25.8" r="0.4"/>
				<circle class="st18" cx="33.6" cy="23.4" r="0.4"/>
				<circle class="st18" cx="35.2" cy="24" r="0.4"/>
				<circle class="st18" cx="36" cy="21" r="0.4"/>
				<circle class="st18" cx="34.7" cy="22.5" r="0.4"/>
				<circle class="st18" cx="36.4" cy="24.7" r="0.4"/>
				<circle class="st18" cx="36.4" cy="19.6" r="0.4"/>
				<circle class="st18" cx="36.6" cy="26.9" r="0.4"/>
				<circle class="st18" cx="32.4" cy="23.9" r="0.4"/>
				<path class="st5" d="M36.5,17.2c0-0.1-0.3-0.3-0.6-0.3h-0.1c0.1,0,0.1-0.1,0.1-0.1c0-0.1-0.3-0.3-0.6-0.3c-0.2,0-0.3,0-0.4,0.1      v-0.1c0-0.1-0.3-0.3-0.6-0.3c-0.1,0-0.2,0-0.3,0s-0.3-0.1-0.5-0.1h-0.1l0,0c0-0.1-0.3-0.3-0.6-0.3c-0.1,0-0.3,0-0.4,0.1      c-0.1,0-0.3-0.1-0.4-0.1c-0.1,0-0.3,0-0.4,0c-0.1,0-0.2-0.1-0.3-0.1c-0.1-0.1-0.3-0.2-0.6-0.2s-0.6,0.1-0.6,0.2      c-0.1,0-0.2,0-0.3,0s-0.3,0-0.4,0.1c-0.1-0.1-0.3-0.2-0.6-0.2c-0.2,0-0.3,0-0.4,0.1c-0.1-0.1-0.3-0.2-0.6-0.2s-0.5,0.1-0.6,0.2      c-0.1,0-0.2,0-0.3,0c-0.3,0-0.6,0.1-0.6,0.2c-0.1,0-0.2,0-0.3,0c-0.2,0-0.3,0-0.4,0.1v-0.1c0-0.1-0.3-0.2-0.7-0.1      c-0.1,0-0.3,0.1-0.4,0.1c-0.1-0.1-0.4-0.1-0.7-0.1c-0.1,0-0.3,0.1-0.4,0.2c-0.1,0-0.3,0-0.5,0c-0.2,0.1-0.4,0.2-0.5,0.3      c-0.1,0-0.2,0-0.4,0h-0.1c-0.1-0.1-0.3-0.2-0.7-0.1c-0.3,0.1-0.6,0.3-0.6,0.4l0,0c-0.1,0-0.2,0-0.3,0c-0.3,0.1-0.6,0.3-0.6,0.4      c0,0.1,0.3,0.2,0.7,0.1c0.3-0.1,0.6-0.3,0.6-0.4l0,0c0.1,0,0.2,0,0.3,0h0.1c0.1,0.1,0.3,0.2,0.7,0.1c0.2-0.1,0.4-0.2,0.5-0.3      c0.1,0,0.2,0,0.4,0c0.1,0,0.3-0.1,0.4-0.2c0.1,0,0.3,0,0.5,0c0.1,0,0.3-0.1,0.4-0.1c0.1,0.1,0.4,0.1,0.7,0.1      c0.1,0,0.2-0.1,0.3-0.1l0,0c0,0.1,0.3,0.3,0.6,0.3s0.6-0.1,0.6-0.2c0.1,0,0.2,0,0.3,0s0.3,0,0.4-0.1c0.1,0.1,0.3,0.2,0.6,0.2      s0.5-0.1,0.6-0.2c0.1,0,0.2,0,0.3,0s0.3,0,0.4-0.1c0.1,0.1,0.3,0.2,0.6,0.2s0.6-0.1,0.6-0.2h0.1c0.1,0.1,0.3,0.2,0.6,0.2      c0.1,0,0.3,0,0.4,0c0.1,0.1,0.3,0.1,0.5,0.1c0.1,0,0.3,0,0.4-0.1c0.1,0,0.3,0.1,0.4,0.1h0.1l0,0c0,0.1,0.3,0.3,0.6,0.3      c0.1,0,0.2,0,0.3,0s0.3,0.1,0.5,0.1s0.3,0,0.4-0.1v0.1c0,0.1,0.3,0.3,0.6,0.3h0.1c-0.1,0-0.1,0.1-0.1,0.1l0,0      c-0.1,0-0.2,0.1-0.2,0.2c0,0.1,0.3,0.3,0.6,0.3c0.4,0,0.6-0.1,0.6-0.3l0,0C36.4,17.4,36.5,17.3,36.5,17.2z"/>
			</g>
			<ellipse class="st6" cx="28.1" cy="17.2" rx="6.5" ry="0.9"/>
			<g>
				<path class="st2" d="M22.2,17.2c0,0,1.7,0.3,4.2,0.4c2.1,0.1,4.8,0,7.5-0.4C34,17.2,28.3,11.9,22.2,17.2z"/>
				<path class="st4" d="M32.3,16c0,0-1.8,0-3.5,1.6h-0.3c0,0,1.6-1.9,3.6-1.7L32.3,16z"/>
				<path class="st4" d="M30.4,15.2c0,0-2.7,0-4.7,2.3h-0.6c0,0,1.8-2.5,4.9-2.4C30,15.1,30.3,15.2,30.4,15.2z"/>
				<path class="st4" d="M27.4,14.9c0,0-2.6,0.8-4.1,2.5l-0.5-0.1C22.8,17.3,24.6,15.2,27.4,14.9z"/>
			</g>
		</g>
		<g>
			<g>
				<g>
					<path class="st19" d="M22.6,3.5L22.6,3.5h-1.7h-1.7v0.1l-5.4,0.1V15c0,0.2,0,0.3,0,0.5c0,0.8,1.1,1.3,3.1,1.7       c0.7,0.1,1.4,0.3,2.3,0.3c0,0,1.7,0.2,3.5,0c0.8-0.1,1.6-0.2,2.3-0.3c2-0.4,3-1,3.1-1.7c0-0.1,0-0.3,0-0.5V3.6L22.6,3.5z"/>
					<ellipse class="st20" cx="20.8" cy="3.6" rx="7.1" ry="1.4"/>
					<ellipse class="st5" cx="20.8" cy="3.9" rx="6.5" ry="1"/>
					<path class="st5" d="M27.4,3.8c0-0.1-0.2-0.2-0.5-0.2h-0.1l0.1-0.1c0-0.1-0.2-0.2-0.5-0.2c-0.1,0-0.3,0-0.3,0.1V3.3       c0-0.1-0.2-0.2-0.5-0.2c-0.1,0-0.2,0-0.2,0C25.3,3.1,25.2,3,25,3c0,0,0,0-0.1,0l0,0c0-0.1-0.2-0.2-0.5-0.2c-0.1,0-0.2,0-0.3,0       s-0.2-0.1-0.3-0.1s-0.2,0-0.3,0s-0.1-0.1-0.2-0.1c0-0.1-0.3-0.2-0.5-0.2s-0.4,0.1-0.5,0.2c-0.1,0-0.2,0-0.2,0       c-0.1,0-0.2,0-0.3,0c-0.1-0.1-0.3-0.1-0.5-0.1c-0.1,0-0.3,0-0.3,0.1c-0.1-0.1-0.3-0.1-0.5-0.1S20.1,2.6,20,2.6s-0.1,0-0.2,0       c-0.3,0-0.5,0.1-0.5,0.2c-0.1,0-0.1,0-0.2,0c-0.1,0-0.2,0-0.3,0.1V2.8c0-0.1-0.3-0.1-0.5-0.1c-0.1,0-0.2,0.1-0.3,0.1       c-0.1-0.1-0.3-0.1-0.5-0.1c-0.1,0-0.2,0.1-0.3,0.1s-0.2,0-0.4,0S16.5,2.9,16.4,3c-0.1,0-0.2,0-0.3,0H16c0-0.1-0.3-0.1-0.5-0.1       C15.2,3,15,3.1,15.1,3.2l0,0c-0.1,0-0.1,0-0.2,0c-0.3,0.1-0.5,0.2-0.4,0.3c0,0.1,0.3,0.1,0.5,0.1c0.3-0.1,0.5-0.2,0.4-0.3l0,0       c0.1,0,0.1,0,0.2,0h0.1c0,0.1,0.3,0.1,0.5,0.1s0.3-0.1,0.4-0.2c0.1,0,0.2,0,0.3,0s0.2-0.1,0.3-0.1s0.2,0,0.4,0       c0.1,0,0.2-0.1,0.3-0.1c0.1,0.1,0.3,0.1,0.5,0.1c0.1,0,0.2-0.1,0.3-0.1l0,0c0,0.1,0.2,0.2,0.5,0.2s0.5-0.1,0.5-0.2       c0.1,0,0.1,0,0.2,0c0.1,0,0.2,0,0.3,0c0.1,0.1,0.3,0.1,0.5,0.1S21.1,3,21.2,3s0.2,0,0.3,0s0.2,0,0.3,0c0.1,0.1,0.3,0.1,0.5,0.1       s0.4-0.1,0.5-0.2c0,0,0,0,0.1,0c0,0.1,0.3,0.2,0.5,0.2c0.1,0,0.2,0,0.3,0s0.2,0.1,0.4,0.1c0.1,0,0.2,0,0.3,0s0.2,0.1,0.3,0.1       c0,0,0,0,0.1,0l0,0c0,0.1,0.2,0.2,0.5,0.2c0.1,0,0.2,0,0.2,0c0.1,0,0.2,0.1,0.4,0.1c0.1,0,0.3,0,0.3-0.1v0.1       c0,0.1,0.2,0.2,0.5,0.2h0.1l-0.1,0.1l0,0c-0.1,0-0.2,0.1-0.2,0.2c0,0.1,0.2,0.2,0.5,0.2s0.5-0.1,0.5-0.2l0,0       C27.3,3.9,27.4,3.8,27.4,3.8z"/>
				</g>
				<path class="st21" d="M25.9,14.5L25.9,14.5c-0.5,0-1-0.4-1-1V7c0-0.5,0.4-1,1-1l0,0c0.5,0,1,0.4,1,1v6.5      C26.9,14.1,26.4,14.5,25.9,14.5z"/>
				<path class="st22" d="M25.9,14.5L25.9,14.5c-0.5,0-1-0.4-1-1v-2.2c0-0.5,0.4-1,1-1l0,0c0.5,0,1,0.4,1,1v2.2      C26.9,14.1,26.4,14.5,25.9,14.5z"/>
			</g>
			<g>
				<g>
					<circle class="st12" cx="22.7" cy="2.2" r="1.1"/>
					<circle class="st13" cx="22.5" cy="1.9" r="0.4"/>
				</g>
				<g>
					<circle class="st12" cx="19.2" cy="2.2" r="1.1"/>
					<circle class="st13" cx="19" cy="1.9" r="0.4"/>
				</g>
				<g>
					<circle class="st14" cx="23.6" cy="3.4" r="1.1"/>
					<circle class="st15" cx="23.4" cy="3" r="0.4"/>
				</g>
				<g>
					<circle class="st12" cx="21.8" cy="3.4" r="1.1"/>
					<circle class="st13" cx="21.5" cy="3" r="0.4"/>
				</g>
				<g>
					<circle class="st14" cx="19.9" cy="3.4" r="1.1"/>
					<circle class="st15" cx="19.6" cy="3" r="0.4"/>
				</g>
				<g>
					<circle class="st14" cx="20.9" cy="2" r="1.1"/>
					<circle class="st15" cx="20.6" cy="1.6" r="0.4"/>
				</g>
				<g>
					<circle class="st12" cx="18" cy="3.4" r="1.1"/>
					<circle class="st13" cx="17.8" cy="3" r="0.4"/>
				</g>
			</g>
		</g>
		<g>
			<g>
				<g>
					<path class="st19" d="M36.8,3.3L36.8,3.3h-1.7h-1.7v0.1L28,3.5v11.3c0,0.2,0,0.3,0,0.5c0,0.8,1.1,1.3,3.1,1.7       c0.7,0.1,1.4,0.3,2.3,0.3c0,0,1.7,0.2,3.5,0c0.8-0.1,1.6-0.2,2.3-0.3c2-0.4,3-1,3.1-1.7c0-0.1,0-0.3,0-0.5V3.4L36.8,3.3z"/>
					<ellipse class="st20" cx="35.1" cy="3.4" rx="7.1" ry="1.4"/>
					<ellipse class="st5" cx="35.1" cy="3.7" rx="6.5" ry="1"/>
					<path class="st5" d="M41.7,3.6c0-0.1-0.2-0.2-0.5-0.2h-0.1l0.1-0.1c0-0.1-0.2-0.2-0.5-0.2c-0.1,0-0.3,0-0.3,0.1V3.1       c0-0.1-0.2-0.2-0.5-0.2c-0.1,0-0.2,0-0.2,0c-0.1,0-0.2-0.1-0.4-0.1c0,0,0,0-0.1,0l0,0c0-0.1-0.2-0.2-0.5-0.2       c-0.1,0-0.2,0-0.3,0s-0.2-0.1-0.3-0.1s-0.2,0-0.3,0s-0.1-0.1-0.2-0.1c0-0.1-0.3-0.2-0.5-0.2s-0.4,0.1-0.5,0.2       c-0.1,0-0.2,0-0.2,0c-0.1,0-0.2,0-0.3,0c-0.1-0.1-0.3-0.1-0.5-0.1c-0.1,0-0.3,0-0.3,0.1c-0.1-0.1-0.3-0.1-0.5-0.1       s-0.4,0.1-0.5,0.1s-0.1,0-0.2,0c-0.3,0-0.5,0.1-0.5,0.2c-0.1,0-0.1,0-0.2,0c-0.1,0-0.2,0-0.3,0.1V2.6c0-0.1-0.3-0.1-0.5-0.1       c-0.1,0-0.2,0.1-0.3,0.1c-0.1-0.1-0.3-0.1-0.5-0.1c-0.1,0-0.2,0.1-0.3,0.1s-0.2,0-0.4,0s-0.3,0.1-0.4,0.2c-0.1,0-0.2,0-0.3,0       h-0.1c0-0.1-0.3-0.1-0.5-0.1c-0.3,0.1-0.5,0.2-0.4,0.3l0,0c-0.1,0-0.1,0-0.2,0c-0.3,0.1-0.5,0.2-0.4,0.3c0,0.1,0.3,0.1,0.5,0.1       c0.3-0.1,0.5-0.2,0.4-0.3l0,0c0.1,0,0.1,0,0.2,0H30c0,0.1,0.3,0.1,0.5,0.1s0.3-0.1,0.4-0.2c0.1,0,0.2,0,0.3,0s0.2-0.1,0.3-0.1       s0.2,0,0.4,0c0.1,0,0.2-0.1,0.3-0.1c0.1,0.1,0.3,0.1,0.5,0.1c0.1,0,0.2-0.1,0.3-0.1l0,0C33,2.9,33.2,3,33.5,3S34,2.9,34,2.8       c0.1,0,0.1,0,0.2,0c0.1,0,0.2,0,0.3,0c0.1,0.1,0.3,0.1,0.5,0.1s0.4-0.1,0.5-0.1s0.2,0,0.3,0s0.2,0,0.3,0       c0.1,0.1,0.3,0.1,0.5,0.1s0.4-0.1,0.5-0.2c0,0,0,0,0.1,0c0,0.1,0.3,0.2,0.5,0.2c0.1,0,0.2,0,0.3,0S38.2,3,38.4,3       c0.1,0,0.2,0,0.3,0s0.2,0.1,0.3,0.1c0,0,0,0,0.1,0l0,0c0,0.1,0.2,0.2,0.5,0.2c0.1,0,0.2,0,0.2,0c0.1,0,0.2,0.1,0.4,0.1       c0.1,0,0.3,0,0.3-0.1v0.1c0,0.1,0.2,0.2,0.5,0.2h0.1L41,3.7l0,0c-0.1,0-0.2,0.1-0.2,0.2c0,0.1,0.2,0.2,0.5,0.2s0.5-0.1,0.5-0.2       l0,0C41.6,3.7,41.7,3.6,41.7,3.6z"/>
				</g>
				<path class="st21" d="M40.2,14.3L40.2,14.3c-0.5,0-1-0.4-1-1V6.8c0-0.5,0.4-1,1-1l0,0c0.5,0,1,0.4,1,1v6.5      C41.1,13.9,40.7,14.3,40.2,14.3z"/>
				<path class="st22" d="M40.2,14.3L40.2,14.3c-0.5,0-1-0.4-1-1v-2.2c0-0.5,0.4-1,1-1l0,0c0.5,0,1,0.4,1,1v2.2      C41.2,13.9,40.7,14.3,40.2,14.3z"/>
			</g>
			<path class="st9" d="M31,3.7c0,0,3.9,0.6,8.2,0C39.2,3.7,35.3,0.1,31,3.7z"/>
			<path class="st11" d="M38,2.9c0,0-1.2,0-2.5,1.1h-0.2c0,0,1.1-1.3,2.5-1.2L38,2.9z"/>
			<path class="st11" d="M36.7,2.4c0,0-1.9,0-3.3,1.6H33c0,0,1.2-1.7,3.4-1.6C36.4,2.3,36.7,2.4,36.7,2.4z"/>
			<path class="st11" d="M34.6,2.2c0,0-1.8,0.5-2.8,1.7h-0.3C31.5,3.8,32.7,2.4,34.6,2.2z"/>
		</g>
	</g>
</g>
</svg>