<?xml version="1.0" encoding="utf-8"?>
<!-- Generator: Adobe Illustrator 25.2.1, SVG Export Plug-In . SVG Version: 6.00 Build 0)  -->
<svg version="1.1" id="Слой_1" xmlns="http://www.w3.org/2000/svg" xmlns:xlink="http://www.w3.org/1999/xlink" x="0px" y="0px"
	 viewBox="0 0 51.5 33.2" style="enable-background:new 0 0 51.5 33.2;" xml:space="preserve">
<style type="text/css">
	.st0{display:none;}
	.st1{display:inline;}
	.st2{fill:#FFFFFF;}
	.st3{fill:#FFF0D7;}
	.st4{fill:#F74646;}
	.st5{fill:#2D2D2D;}
	.st6{fill:#F7D7B5;}
	.st7{fill:#FDFFF8;}
	.st8{opacity:0.57;fill:#FF6F6C;enable-background:new    ;}
	.st9{fill:#D32A2A;}
	.st10{fill:#FF765F;}
	.st11{fill:#A6CC3B;}
	.st12{fill:#92B21F;}
	.st13{fill:#CAEA54;}
	.st14{fill:#F2712A;}
	.st15{fill:#FF8F43;}
	.st16{fill:#E54E13;}
	.st17{fill:#FFA14D;}
	.st18{fill:#FF6D2C;}
	.st19{fill:#F45719;}
	.st20{fill:#FF7E3E;}
	.st21{fill:#FF6F27;}
	.st22{fill:#FF9B40;}
</style>
<g>
	<g class="st0">
		<path class="st1" d="M-122.2,21.2h-2.3v-11h6.6v2.1h-4.3C-122.2,12.3-122.2,21.2-122.2,21.2z"/>
		<path class="st1" d="M-114.4,20.8c-0.6-0.4-1.1-0.9-1.5-1.5s-0.5-1.3-0.5-2.1s0.2-1.5,0.5-2.1c0.4-0.6,0.8-1.1,1.5-1.5
			c0.6-0.4,1.4-0.5,2.2-0.5c0.8,0,1.5,0.2,2.2,0.5c0.6,0.4,1.1,0.9,1.5,1.5s0.5,1.4,0.5,2.1c0,0.8-0.2,1.5-0.5,2.1
			c-0.4,0.6-0.8,1.1-1.5,1.5c-0.6,0.4-1.4,0.5-2.2,0.5C-113,21.4-113.8,21.2-114.4,20.8z M-110.9,18.7c0.4-0.4,0.5-0.9,0.5-1.5
			s-0.2-1.1-0.5-1.5c-0.4-0.4-0.8-0.6-1.4-0.6c-0.5,0-1,0.2-1.4,0.6c-0.4,0.4-0.5,0.9-0.5,1.5s0.2,1.1,0.5,1.5
			c0.4,0.4,0.8,0.6,1.4,0.6l0,0C-111.7,19.3-111.2,19.1-110.9,18.7z"/>
		<path class="st1" d="M-104.5,13.2v1.4c0.2-0.6,0.6-1,1-1.2s0.9-0.3,1.4-0.3c0.6,0,1.2,0.2,1.7,0.5c0.5,0.4,0.9,0.8,1.2,1.5
			c0.3,0.7,0.5,1.4,0.5,2.2s-0.2,1.5-0.5,2.1s-0.7,1.1-1.2,1.5s-1.1,0.5-1.7,0.5c-0.5,0-1-0.1-1.4-0.4c-0.4-0.2-0.7-0.6-0.9-1v4.6
			h-2.3V13.2H-104.5z M-101.5,18.8c0.3-0.4,0.5-0.9,0.5-1.6c0-0.7-0.2-1.2-0.5-1.6c-0.3-0.4-0.7-0.6-1.2-0.6s-0.9,0.2-1.3,0.6
			c-0.3,0.4-0.5,0.9-0.5,1.5v0.1c0,0.6,0.2,1.2,0.5,1.6c0.3,0.4,0.7,0.6,1.3,0.6l0,0C-102.3,19.4-101.9,19.2-101.5,18.8z"/>
		<path class="st1" d="M-95.4,18c-0.4-0.2-0.7-0.5-1-0.8c-0.3-0.4-0.4-0.9-0.4-1.5c0-0.6,0.1-1,0.4-1.4s0.6-0.6,1.1-0.8
			s0.9-0.3,1.4-0.3h3.8v8h-2.4v-2.9h-0.8l-1.2,2.9h-2.3L-95.4,18z M-93.4,16.6h0.9V15h-0.9c-0.4,0-0.7,0.1-0.9,0.2
			c-0.2,0.1-0.3,0.3-0.3,0.6c0,0.3,0.1,0.5,0.3,0.7C-94.1,16.5-93.8,16.6-93.4,16.6z"/>
		<path class="st1" d="M-83.2,21.2v-3.9c-0.2,0.5-0.5,0.9-1,1.2c-0.4,0.3-0.9,0.4-1.5,0.4c-0.7,0-1.3-0.2-1.8-0.7
			c-0.4-0.5-0.7-1.2-0.7-2.1v-2.9h2.3v2.5c0,0.4,0.1,0.7,0.3,0.9c0.2,0.2,0.5,0.3,0.8,0.3c0.4,0,0.7-0.1,1-0.4
			c0.3-0.3,0.4-0.6,0.4-1.1v-2.2h2.3v8H-83.2z"/>
		<path class="st1" d="M-79,21.2v-8h2.3v4.7l2.2-4.7h2.8v8H-74v-4.3l-2,4.3H-79z"/>
		<path class="st1" d="M-66,13.1c0.8,0,1.5,0.2,2,0.5c0.6,0.4,1,0.9,1.3,1.5c0.2,0.4,0.3,0.8,0.3,1.2c0,0.4,0,0.7,0,0.9v0.6h-5.5
			c0.1,0.5,0.3,0.9,0.7,1.2s0.8,0.5,1.4,0.5c0.4,0,0.8-0.1,1.1-0.2c0.3-0.1,0.6-0.4,0.8-0.6l1.3,1.4c-0.3,0.4-0.7,0.8-1.2,1.1
			c-0.6,0.3-1.3,0.4-2,0.4c-0.9,0-1.7-0.2-2.3-0.6c-0.7-0.4-1.1-0.9-1.5-1.5c-0.3-0.6-0.5-1.3-0.5-2.1s0.2-1.5,0.5-2.1
			c0.3-0.6,0.8-1.1,1.4-1.5C-67.5,13.2-66.8,13-66,13.1z M-67.3,15.4c-0.3,0.3-0.5,0.6-0.6,1.1h3.4c0-0.5-0.2-0.8-0.5-1.1
			c-0.3-0.2-0.7-0.4-1.2-0.4C-66.6,15-67,15.1-67.3,15.4z"/>
		<path class="st1" d="M-52.4,13.2v1.4c0.2-0.6,0.6-1,1-1.2c0.4-0.2,0.9-0.3,1.4-0.3c0.6,0,1.2,0.2,1.7,0.5c0.5,0.4,0.9,0.8,1.2,1.5
			c0.3,0.7,0.5,1.4,0.5,2.2s-0.2,1.5-0.5,2.1s-0.7,1.1-1.2,1.5s-1.1,0.5-1.7,0.5c-0.5,0-1-0.1-1.4-0.4c-0.4-0.2-0.7-0.6-0.9-1v4.6
			h-2.3V13.2H-52.4z M-49.4,18.8c0.3-0.4,0.5-0.9,0.5-1.6c0-0.7-0.2-1.2-0.5-1.6c-0.3-0.4-0.7-0.6-1.2-0.6s-0.9,0.2-1.3,0.6
			c-0.3,0.4-0.5,0.9-0.5,1.5v0.1c0,0.6,0.2,1.2,0.5,1.6c0.3,0.4,0.7,0.6,1.3,0.6l0,0C-50.1,19.4-49.7,19.2-49.4,18.8z"/>
		<path class="st1" d="M-43.2,20.8c-0.6-0.4-1.1-0.9-1.5-1.5c-0.4-0.6-0.5-1.3-0.5-2.1s0.2-1.5,0.5-2.1c0.4-0.6,0.8-1.1,1.5-1.5
			c0.6-0.4,1.4-0.5,2.2-0.5s1.5,0.2,2.2,0.5c0.6,0.4,1.1,0.9,1.5,1.5c0.4,0.6,0.5,1.4,0.5,2.1c0,0.8-0.2,1.5-0.5,2.1
			c-0.4,0.6-0.8,1.1-1.5,1.5c-0.6,0.4-1.4,0.5-2.2,0.5S-42.5,21.2-43.2,20.8z M-39.7,18.7c0.4-0.4,0.5-0.9,0.5-1.5s-0.2-1.1-0.5-1.5
			c-0.4-0.4-0.8-0.6-1.4-0.6c-0.5,0-1,0.2-1.4,0.6c-0.4,0.4-0.5,0.9-0.5,1.5s0.2,1.1,0.5,1.5c0.4,0.4,0.8,0.6,1.4,0.6l0,0
			C-40.5,19.3-40,19.1-39.7,18.7z"/>
		<path class="st1" d="M-34,13.2h6v8h-2.4v-5.9h-1.4v3.8c0,0.6-0.2,1.1-0.6,1.5s-1,0.6-1.6,0.6h-1.4v-1.9h0.5c0.4,0,0.6-0.1,0.7-0.2
			c0.1-0.1,0.2-0.4,0.2-0.7C-34,18.4-34,13.2-34,13.2z"/>
		<path class="st1" d="M-24.9,13.2h6v8h-2.4v-5.9h-1.4v3.8c0,0.6-0.2,1.1-0.6,1.5s-1,0.6-1.6,0.6h-1.5v-1.9h0.5
			c0.4,0,0.6-0.1,0.7-0.2c0.1-0.1,0.2-0.4,0.2-0.7v-5.2H-24.9z"/>
		<path class="st1" d="M-17,21.2v-8h2.4V16h1.4c0.5,0,1,0.1,1.4,0.3s0.8,0.5,1.1,0.8c0.3,0.4,0.4,0.9,0.4,1.5s-0.1,1-0.4,1.4
			c-0.3,0.4-0.6,0.6-1.1,0.8s-0.9,0.3-1.4,0.3H-17V21.2z M-13.7,17.8h-0.9v1.6h0.9c0.4,0,0.7-0.1,0.9-0.2c0.2-0.1,0.3-0.3,0.3-0.6
			s-0.1-0.5-0.3-0.7C-13,17.9-13.3,17.8-13.7,17.8z M-9.4,21.2v-8h2.3v8H-9.4z"/>
	</g>
	<g>
		<g>
			<g>
				<rect x="3.1" y="18.2" class="st2" width="13.5" height="12"/>
				<rect x="19.3" y="18.2" class="st2" width="13.5" height="12"/>
				<rect x="10.7" y="3" class="st2" width="13.5" height="12.2"/>
				<rect x="27.3" y="3" class="st2" width="13.5" height="12.2"/>
				<rect x="35.3" y="18.2" class="st2" width="13.5" height="12"/>
			</g>
			<g>
				<g>
					<g>
						<g>
							<g>
								<path class="st3" d="M18,15.5h-1.3c-3.5,0-6.3-2.9-6.3-6.3l0,0c0-3.5,2.9-6.3,6.3-6.3H18c3.5,0,6.3,2.9,6.3,6.3l0,0
									C24.4,12.6,21.5,15.5,18,15.5z"/>
							</g>
							<g>
								<g>
									<path class="st4" d="M21.4,16.6h-7.9c-2.3,0-4.1-1.8-4.1-4.1V5.7c0-2.3,1.8-4.1,4.1-4.1h7.9c2.3,0,4.1,1.8,4.1,4.1v6.8
										C25.4,14.8,23.6,16.6,21.4,16.6z M13.5,3.1c-1.4,0-2.6,1.2-2.6,2.6v6.8c0,1.4,1.2,2.6,2.6,2.6h7.9c1.4,0,2.6-1.2,2.6-2.6
										V5.7c0-1.4-1.2-2.6-2.6-2.6H13.5z"/>
								</g>
							</g>
							<g>
								<path class="st5" d="M17.7,12.8h-0.6c-2,0-3.6-1.6-3.6-3.6l0,0c0-2,1.6-3.6,3.6-3.6h0.6c2,0,3.6,1.6,3.6,3.6l0,0
									C21.4,11.1,19.7,12.8,17.7,12.8z"/>
							</g>
							<g>
								<ellipse class="st6" cx="16.4" cy="4.2" rx="0.6" ry="0.2"/>
							</g>
							<g>
								<ellipse class="st6" cx="13.3" cy="4.8" rx="0.6" ry="0.2"/>
							</g>
							<g>
								<ellipse class="st6" cx="15" cy="14.5" rx="0.6" ry="0.2"/>
							</g>
							<g>
								<ellipse class="st6" cx="22.8" cy="13.2" rx="0.6" ry="0.2"/>
							</g>
							<g>
								<ellipse class="st6" cx="22.3" cy="8.6" rx="0.6" ry="0.2"/>
							</g>
							<g>
								
									<ellipse transform="matrix(0.2947 -0.9556 0.9556 0.2947 -1.667 19.6339)" class="st6" cx="12.5" cy="10.9" rx="0.2" ry="0.7"/>
							</g>
							<g>
								
									<ellipse transform="matrix(0.2947 -0.9556 0.9556 0.2947 -2.188144e-02 28.3298)" class="st6" cx="19.2" cy="14.2" rx="0.2" ry="0.7"/>
							</g>
							<g>
								
									<ellipse transform="matrix(0.2947 -0.9556 0.9556 0.2947 10.5384 24.584)" class="st6" cx="21.9" cy="5.2" rx="0.2" ry="0.7"/>
							</g>
							<g>
								
									<ellipse transform="matrix(0.9036 -0.4283 0.4283 0.9036 -2.4811 5.8106)" class="st6" cx="11.7" cy="8.4" rx="0.7" ry="0.2"/>
							</g>
							<g>
								
									<ellipse transform="matrix(0.9036 -0.4283 0.4283 0.9036 -2.4682 10.6724)" class="st6" cx="22.5" cy="10.8" rx="0.7" ry="0.2"/>
							</g>
							<g>
								
									<ellipse transform="matrix(0.9036 -0.4283 0.4283 0.9036 -4.6503 6.7946)" class="st6" cx="12.8" cy="13.7" rx="0.7" ry="0.2"/>
							</g>
							<g>
								
									<ellipse transform="matrix(0.9036 -0.4283 0.4283 0.9036 1.012693e-02 8.6604)" class="st6" cx="19.3" cy="4.3" rx="0.7" ry="0.2"/>
							</g>
						</g>
						<g>
							<path class="st7" d="M21,9.8c0,1.8-2.1,2.7-3.9,2.7c-4.3,0.1-3-2.6-3-4.4c0-1.8,1.7-2.3,3.5-2.4C21.9,5.6,21,8,21,9.8z"/>
						</g>
						<g>
							<path class="st4" d="M15.8,10.8L15.8,10.8c-1.3-0.3-2.2-1.6-1.9-2.9l0,0c0.3-1.3,1.6-2.2,2.9-1.9l0,0
								c1.3,0.3,2.2,1.6,1.9,2.9l0,0C18.4,10.2,17.1,11.1,15.8,10.8z"/>
						</g>
						<circle class="st8" cx="15.8" cy="7.3" r="1.1"/>
						<g>
							<path class="st9" d="M18.4,6.4c0,0.2,0.1,0.4,0,0.6l-0.5,2.3c-0.1,0.7-0.8,1.1-1.5,1L14,9.8c-0.2,0-0.3-0.1-0.4-0.2
								c0.1,0.5,0.5,0.8,1,0.9L17,11c0.7,0.1,1.4-0.3,1.5-1L19,7.6C19.1,7.2,18.8,6.7,18.4,6.4z"/>
						</g>
						<g>
							<path class="st10" d="M15.3,10.7l-0.7-0.1C16.1,8.3,19,7.7,19,7.7l-0.1,0.4C18.9,8,16.7,8.5,15.3,10.7z"/>
						</g>
						<g>
							<path class="st10" d="M14,7.3l0.1-0.6C15.4,5.8,17,6,17.1,6l0.6,0.1C17.6,6.2,15.2,6.4,14,7.3z"/>
						</g>
						<path class="st10" d="M18.7,6.6c0,0-2.7-0.5-4.8,1.5l-0.3,1.1c2-1.9,5.2-2.2,5.3-2.2C18.8,6.8,18.7,6.6,18.7,6.6z"/>
						<rect x="16.6" y="8.7" class="st11" width="4" height="3.2"/>
						<polygon class="st12" points="20.2,8.7 20.2,11.4 16.6,11.4 16.6,11.9 20.6,11.9 20.6,8.7 						"/>
						<path class="st13" d="M19,10.3h-1.5c-0.3,0-0.6-0.3-0.6-0.6l0,0c0-0.3,0.3-0.6,0.6-0.6H19c0.3,0,0.6,0.3,0.6,0.6l0,0
							C19.6,10.1,19.3,10.3,19,10.3z"/>
						<circle class="st4" cx="24.1" cy="15.4" r="0.5"/>
						<circle class="st4" cx="24.3" cy="14.9" r="0.5"/>
						<circle class="st4" cx="24.8" cy="14.5" r="0.5"/>
						<circle class="st4" cx="25" cy="13.8" r="0.5"/>
						<circle class="st4" cx="25" cy="13.2" r="0.5"/>
						<circle class="st4" cx="25.2" cy="12.5" r="0.5"/>
						<circle class="st4" cx="25.2" cy="11.8" r="0.5"/>
						<circle class="st4" cx="25.3" cy="11.3" r="0.5"/>
						<circle class="st4" cx="25.1" cy="10.7" r="0.5"/>
						<circle class="st4" cx="25.2" cy="10" r="0.5"/>
						<circle class="st4" cx="25.1" cy="9.3" r="0.5"/>
						<circle class="st4" cx="25.2" cy="8.6" r="0.5"/>
						<circle class="st4" cx="25.2" cy="8" r="0.5"/>
						<circle class="st4" cx="25.2" cy="7.4" r="0.5"/>
						<circle class="st4" cx="25.2" cy="6.7" r="0.5"/>
						<circle class="st4" cx="25.3" cy="6.1" r="0.5"/>
						<circle class="st4" cx="25.1" cy="5.5" r="0.5"/>
						<circle class="st4" cx="25.1" cy="4.8" r="0.5"/>
						<circle class="st4" cx="24.9" cy="4.2" r="0.5"/>
						<circle class="st4" cx="24.6" cy="3.5" r="0.5"/>
						<circle class="st4" cx="24.2" cy="3" r="0.5"/>
						<circle class="st4" cx="23.8" cy="2.4" r="0.5"/>
						<circle class="st4" cx="23.1" cy="2.1" r="0.5"/>
						<circle class="st4" cx="22.3" cy="1.9" r="0.5"/>
						<circle class="st4" cx="21.6" cy="1.8" r="0.5"/>
						<circle class="st4" cx="21.1" cy="1.8" r="0.5"/>
						<circle class="st4" cx="20.3" cy="1.8" r="0.5"/>
						<circle class="st4" cx="19.4" cy="1.7" r="0.5"/>
						<circle class="st4" cx="18.7" cy="1.7" r="0.5"/>
						<circle class="st4" cx="18" cy="1.7" r="0.5"/>
						<circle class="st4" cx="17.1" cy="1.8" r="0.5"/>
						<circle class="st4" cx="16.3" cy="1.7" r="0.5"/>
						<circle class="st4" cx="15.5" cy="1.8" r="0.5"/>
						<circle class="st4" cx="14.7" cy="1.7" r="0.5"/>
						<circle class="st4" cx="13.9" cy="1.9" r="0.5"/>
						<circle class="st4" cx="13.2" cy="1.8" r="0.5"/>
						<circle class="st4" cx="12.4" cy="1.8" r="0.5"/>
						<circle class="st4" cx="11.9" cy="2.2" r="0.5"/>
						<circle class="st4" cx="11.2" cy="2.4" r="0.5"/>
						<circle class="st4" cx="10.8" cy="2.9" r="0.5"/>
						<circle class="st4" cx="10.2" cy="3.5" r="0.5"/>
						<circle class="st4" cx="9.8" cy="4.1" r="0.5"/>
						<circle class="st4" cx="9.6" cy="4.8" r="0.5"/>
						<circle class="st4" cx="9.5" cy="5.5" r="0.5"/>
						<circle class="st4" cx="9.5" cy="6.3" r="0.5"/>
						<circle class="st4" cx="9.5" cy="7" r="0.5"/>
						<circle class="st4" cx="9.6" cy="7.7" r="0.5"/>
						<circle class="st4" cx="9.6" cy="8.3" r="0.5"/>
						<circle class="st4" cx="9.4" cy="9.1" r="0.5"/>
						<circle class="st4" cx="9.5" cy="9.9" r="0.5"/>
						<circle class="st4" cx="9.6" cy="10.5" r="0.5"/>
						<circle class="st4" cx="9.5" cy="11.3" r="0.5"/>
						<circle class="st4" cx="9.6" cy="11.9" r="0.5"/>
						<circle class="st4" cx="9.4" cy="12.6" r="0.5"/>
						<circle class="st4" cx="9.6" cy="13.3" r="0.5"/>
						<circle class="st4" cx="9.7" cy="13.9" r="0.5"/>
						<circle class="st4" cx="9.9" cy="14.4" r="0.5"/>
						<circle class="st4" cx="10.4" cy="15" r="0.5"/>
						<circle class="st4" cx="10.8" cy="15.5" r="0.5"/>
						<circle class="st4" cx="11.4" cy="15.9" r="0.5"/>
						<circle class="st4" cx="12.1" cy="16.2" r="0.5"/>
						<circle class="st4" cx="12.9" cy="16.4" r="0.5"/>
						<circle class="st4" cx="13.6" cy="16.4" r="0.5"/>
						<circle class="st4" cx="14.4" cy="16.5" r="0.5"/>
						<circle class="st4" cx="15.1" cy="16.5" r="0.5"/>
						<circle class="st4" cx="15.9" cy="16.5" r="0.5"/>
						<circle class="st4" cx="16.6" cy="16.5" r="0.5"/>
						<circle class="st4" cx="17.4" cy="16.4" r="0.5"/>
						<circle class="st4" cx="18.2" cy="16.4" r="0.5"/>
						<circle class="st4" cx="19" cy="16.5" r="0.5"/>
						<circle class="st4" cx="19.6" cy="16.3" r="0.5"/>
						<circle class="st4" cx="20.3" cy="16.4" r="0.5"/>
						<circle class="st4" cx="21" cy="16.5" r="0.5"/>
						<circle class="st4" cx="21.6" cy="16.3" r="0.5"/>
						<circle class="st4" cx="22.4" cy="16.4" r="0.5"/>
						<circle class="st4" cx="23" cy="16.2" r="0.5"/>
						<circle class="st4" cx="23.6" cy="15.9" r="0.5"/>
						<circle class="st4" cx="22.7" cy="15.7" r="0.3"/>
					</g>
					<g>
						<g>
							<path class="st3" d="M34.7,15.5h-1.3c-3.5,0-6.3-2.9-6.3-6.3l0,0c0-3.5,2.9-6.3,6.3-6.3h1.3c3.5,0,6.3,2.9,6.3,6.3l0,0
								C41,12.6,38.2,15.5,34.7,15.5z"/>
						</g>
						<g>
							<path class="st5" d="M34.4,12.8h-0.6c-2,0-3.6-1.6-3.6-3.6l0,0c0-2,1.6-3.6,3.6-3.6h0.6c2,0,3.6,1.6,3.6,3.6l0,0
								C38,11.1,36.4,12.8,34.4,12.8z"/>
						</g>
						<g>
							<ellipse class="st6" cx="33" cy="4.2" rx="0.6" ry="0.2"/>
						</g>
						<g>
							<ellipse class="st6" cx="30" cy="4.8" rx="0.6" ry="0.2"/>
						</g>
						<g>
							<ellipse class="st6" cx="31.7" cy="14.5" rx="0.6" ry="0.2"/>
						</g>
						<g>
							<ellipse class="st6" cx="39.4" cy="13.2" rx="0.6" ry="0.2"/>
						</g>
						<g>
							<ellipse class="st6" cx="38.9" cy="8.6" rx="0.6" ry="0.2"/>
						</g>
						<g>
							
								<ellipse transform="matrix(0.2947 -0.9556 0.9556 0.2947 10.1372 35.5105)" class="st6" cx="29.1" cy="10.9" rx="0.2" ry="0.7"/>
						</g>
						<g>
							
								<ellipse transform="matrix(0.2947 -0.9556 0.9556 0.2947 11.7825 44.2059)" class="st6" cx="35.8" cy="14.1" rx="0.2" ry="0.7"/>
						</g>
						<g>
							
								<ellipse transform="matrix(0.2947 -0.9556 0.9556 0.2947 22.2308 40.4991)" class="st6" cx="38.6" cy="5.2" rx="0.2" ry="0.7"/>
						</g>
						<g>
							
								<ellipse transform="matrix(0.9036 -0.4283 0.4283 0.9036 -0.8886 12.9235)" class="st6" cx="28.3" cy="8.4" rx="0.7" ry="0.2"/>
						</g>
						<g>
							
								<ellipse transform="matrix(0.9036 -0.4283 0.4283 0.9036 -0.8743 17.7855)" class="st6" cx="39.1" cy="10.8" rx="0.7" ry="0.2"/>
						</g>
						<g>
							
								<ellipse transform="matrix(0.9036 -0.4283 0.4283 0.9036 -3.0302 13.9421)" class="st6" cx="29.5" cy="13.7" rx="0.7" ry="0.2"/>
						</g>
						<g>
							
								<ellipse transform="matrix(0.9036 -0.4283 0.4283 0.9036 1.6032 15.7734)" class="st6" cx="35.9" cy="4.3" rx="0.7" ry="0.2"/>
						</g>
						<g>
							<path class="st7" d="M37.7,9.8c0,1.8-2.1,2.7-3.9,2.7c-4.3,0.1-3-2.6-3-4.4c0-1.8,1.7-2.3,3.5-2.4C38.5,5.6,37.7,8,37.7,9.8z
								"/>
						</g>
						<g>
							<g>
								<path class="st14" d="M33.4,12L33.4,12c-1.7-0.3-2.8-2-2.5-3.7l0,0c0.3-1.7,2-2.8,3.7-2.5l0,0c1.7,0.3,2.8,2,2.5,3.7l0,0
									C36.8,11.3,35.1,12.4,33.4,12z"/>
							</g>
							<circle class="st15" cx="33.4" cy="7.5" r="1.3"/>
							<g>
								<path class="st16" d="M36.7,6.4c0.1,0.2,0.1,0.5,0,0.7l-0.6,3c-0.2,0.9-1,1.4-1.9,1.3l-3-0.6c-0.2,0-0.4-0.1-0.5-0.2
									c0.1,0.6,0.6,1.1,1.2,1.2l3,0.6c0.9,0.2,1.7-0.4,1.9-1.3l0.6-3C37.6,7.4,37.3,6.7,36.7,6.4z"/>
							</g>
							<g>
								<path class="st17" d="M32.8,11.9l-0.9-0.2C33.8,8.8,37.5,8,37.5,8l-0.1,0.5C37.3,8.5,34.6,9.1,32.8,11.9z"/>
							</g>
							<g>
								<path class="st17" d="M31.1,7.6l0.2-0.8C33,5.6,35,6,35.1,6l0.7,0.1C35.8,6.1,32.7,6.4,31.1,7.6z"/>
							</g>
							<path class="st17" d="M37.1,6.7c0,0-3.5-0.6-6.2,1.9L30.6,10c2.6-2.4,6.7-2.8,6.7-2.8C37.3,6.9,37.1,6.7,37.1,6.7z"/>
						</g>
						<path class="st11" d="M42.1,10.9c0-0.1,0-0.1,0-0.2c0-0.1,0-0.2-0.1-0.3l0,0c0.1-0.1,0.2-0.2,0.2-0.4c0-0.1-0.1-0.3-0.2-0.4
							c0.1-0.1,0.1-0.2,0.1-0.3s0-0.2-0.1-0.3c0.1-0.1,0.2-0.2,0.2-0.4c0-0.1-0.1-0.3-0.2-0.4c0.1-0.1,0.1-0.2,0.1-0.3
							s0-0.2-0.1-0.3c0.1-0.1,0.1-0.2,0.1-0.3s0-0.2-0.1-0.3c0.1-0.1,0.1-0.2,0.1-0.3s0-0.2-0.1-0.3c0.1-0.1,0.2-0.2,0.2-0.4
							S42.1,5.7,42,5.6c0-0.1,0-0.1,0-0.2c0-0.1-0.1-0.3-0.1-0.3C42,5,42,4.9,42,4.8c0-0.2-0.1-0.3-0.3-0.4c0-0.1,0-0.1,0-0.2
							c0-0.2-0.2-0.4-0.4-0.5c0-0.1,0.1-0.2,0.1-0.3c0-0.3-0.2-0.5-0.5-0.5c0-0.2-0.2-0.4-0.4-0.5c0,0,0-0.1,0-0.2
							c0-0.3-0.2-0.5-0.5-0.5c-0.1,0-0.2,0-0.2,0.1c0-0.2-0.2-0.4-0.5-0.4c-0.1,0-0.2,0.1-0.3,0.1c-0.1-0.2-0.2-0.3-0.4-0.3
							c-0.1,0-0.2,0-0.3,0.1c0.3,0.1,0.1,0-0.1,0c-0.1,0-0.2,0-0.3,0.1c-0.1,0-0.2-0.1-0.3-0.1c-0.2,0-0.3,0.1-0.4,0.2
							c-0.1-0.1-0.2-0.2-0.4-0.2s-0.3,0.1-0.4,0.2c-0.1-0.2-0.2-0.3-0.4-0.3c-0.1,0-0.3,0.1-0.4,0.2c-0.1-0.1-0.2-0.2-0.4-0.2
							s-0.3,0.1-0.4,0.2c-0.1-0.1-0.2-0.1-0.3-0.1c-0.2,0-0.4,0.1-0.5,0.3c-0.1-0.1-0.2-0.2-0.4-0.2c-0.1,0-0.3,0.1-0.4,0.2
							c-0.1-0.1-0.2-0.2-0.4-0.2s-0.3,0.1-0.4,0.3c-0.1-0.1-0.2-0.2-0.4-0.2s-0.3,0.1-0.4,0.2c-0.1-0.2-0.2-0.3-0.4-0.3
							s-0.4,0.1-0.5,0.3c-0.1-0.1-0.2-0.2-0.4-0.2c-0.1,0-0.2,0-0.3,0.1c-0.1-0.1-0.2-0.2-0.4-0.2s-0.3,0.1-0.4,0.2
							c-0.1-0.1-0.2-0.2-0.4-0.2s-0.4,0.2-0.5,0.4h-0.1c-0.2,0-0.3,0.1-0.4,0.3c-0.1,0-0.1,0-0.2,0c-0.3,0-0.5,0.2-0.5,0.5
							c-0.3,0-0.5,0.2-0.5,0.5c0,0.1,0,0.1,0,0.1h-0.1c-0.3,0-0.5,0.2-0.5,0.5v0.1c-0.2,0-0.4,0.2-0.4,0.5c0,0.1,0,0.2,0.1,0.3
							c-0.2,0.1-0.4,0.2-0.4,0.5c0,0.1,0,0.2,0.1,0.3c-0.1,0.1-0.2,0.2-0.2,0.4s0.1,0.3,0.2,0.4c0.3-0.2,0.2-0.1,0.2,0.1
							c0,0.1,0.1,0.2,0.1,0.3c-0.1,0.1-0.1,0.2-0.1,0.3c0,0.2,0.1,0.3,0.2,0.4c-0.1,0.1-0.2,0.2-0.2,0.4c0,0.1,0,0.2,0.1,0.3
							c0,0.1-0.1,0.2-0.1,0.2c0,0.1,0,0.2,0.1,0.3c-0.2,0.1-0.3,0.2-0.3,0.5c0,0.2,0.1,0.4,0.3,0.5c-0.1,0.1-0.2,0.2-0.2,0.4
							s0.1,0.3,0.2,0.4c-0.1,0.1-0.1,0.2-0.1,0.3s0.1,0.3,0.1,0.3c-0.1,0.1-0.2,0.2-0.2,0.4c0,0.1,0.1,0.3,0.2,0.4
							c-0.1,0.1-0.1,0.2-0.1,0.3s0,0.2,0.1,0.3c0,0-0.1,0.2-0.1,0.3c0,0.2,0.1,0.3,0.2,0.4c0,0.1-0.1,0.2-0.1,0.2
							c0,0.1,0.1,0.3,0.2,0.4c-0.1,0.1-0.1,0.2-0.1,0.3c0,0.2,0.1,0.3,0.2,0.4l0,0c0,0.3,0.2,0.5,0.5,0.5l0,0v0.1
							c0,0.3,0.2,0.5,0.4,0.5l0,0c0,0.3,0.2,0.5,0.5,0.5c0.1,0,0.1,0,0.2,0c0,0.3,0.2,0.5,0.5,0.5c0.1,0,0.1,0,0.2-0.1
							c0,0.2,0.2,0.4,0.5,0.4c0.1,0,0.2,0,0.3-0.1c0.1,0.2,0.2,0.3,0.4,0.3c0.1,0,0.3-0.1,0.4-0.2c0.1,0.1,0.2,0.1,0.3,0.1
							s0.3-0.1,0.3-0.1c0.1,0.1,0.2,0.2,0.4,0.2s0.3-0.1,0.4-0.2c0.1,0.1,0.2,0.2,0.4,0.2s0.3-0.1,0.4-0.2c0.1,0.1,0.2,0.2,0.4,0.2
							c0.1,0,0.3-0.1,0.4-0.2c0.1,0.1,0.2,0.2,0.4,0.2s0.3-0.1,0.4-0.3c0.1,0.1,0.2,0.2,0.4,0.2s0.3-0.1,0.4-0.2
							c0.1,0.2,0.2,0.3,0.4,0.3c0.1,0,0.3-0.1,0.4-0.2c0.1,0.1,0.2,0.2,0.4,0.2s0.3-0.1,0.4-0.2c0.1,0,0.1,0,0.2,0
							c0.1,0,0.2,0,0.3-0.1c0.1,0.1,0.2,0.2,0.4,0.2c0.1,0,0.3-0.1,0.4-0.2c0.1,0.1,0.2,0.2,0.4,0.2c0.2,0,0.3-0.1,0.4-0.2
							c0.1,0,0.1,0,0.2,0s0.3-0.1,0.4-0.2c0.1,0.2,0.2,0.3,0.4,0.3c0.2,0,0.3-0.1,0.4-0.3h0.1c0.2,0,0.4-0.1,0.4-0.3
							c0.1,0,0.1,0,0.2,0c0.3,0,0.5-0.2,0.5-0.4l0,0c0.3,0,0.5-0.2,0.5-0.5v-0.1c0.1-0.1,0.2-0.2,0.2-0.4l0,0c0.3,0,0.5-0.2,0.5-0.5
							c0-0.1,0-0.2-0.1-0.2c0.1-0.1,0.2-0.2,0.2-0.4c0-0.1,0-0.2-0.1-0.3c0.1-0.1,0.1-0.2,0.1-0.3s0-0.2-0.1-0.3
							c0.2-0.1,0.3-0.2,0.3-0.4c0-0.1-0.1-0.3-0.2-0.4c0.1-0.1,0.1-0.2,0.1-0.3s0-0.2-0.1-0.2c0.1-0.1,0.1-0.2,0.1-0.3
							C42.4,11.2,42.3,11,42.1,10.9z M38,15.1h-7.9c-1.4,0-2.6-1.2-2.6-2.6V5.7c0-1.4,1.2-2.6,2.6-2.6H38c1.4,0,2.6,1.2,2.6,2.6v6.8
							C40.6,14,39.4,15.1,38,15.1z"/>
					</g>
				</g>
				<g>
					<g>
						<g>
							<path class="st3" d="M26.5,30.6h-1.3c-3.5,0-6.3-2.9-6.3-6.3l0,0c0-3.5,2.9-6.3,6.3-6.3h1.3c3.5,0,6.3,2.9,6.3,6.3l0,0
								C32.9,27.7,30,30.6,26.5,30.6z"/>
						</g>
						<g>
							<g>
								<path class="st4" d="M29.8,31.7h-7.9c-2.3,0-4.1-1.8-4.1-4.1v-6.8c0-2.3,1.8-4.1,4.1-4.1h7.9c2.3,0,4.1,1.8,4.1,4.1v6.8
									C33.9,29.9,32.1,31.7,29.8,31.7z M22,18.2c-1.4,0-2.6,1.2-2.6,2.6v6.8c0,1.4,1.2,2.6,2.6,2.6h7.9c1.4,0,2.6-1.2,2.6-2.6
									v-6.8c0-1.4-1.2-2.6-2.6-2.6C29.9,18.2,22,18.2,22,18.2z"/>
							</g>
						</g>
						<g>
							<path class="st5" d="M26.2,27.9h-0.6c-2,0-3.6-1.6-3.6-3.6l0,0c0-2,1.6-3.6,3.6-3.6h0.6c2,0,3.6,1.6,3.6,3.6l0,0
								C29.8,26.2,28.2,27.9,26.2,27.9z"/>
						</g>
						<g>
							<ellipse class="st6" cx="24.9" cy="19.3" rx="0.6" ry="0.2"/>
						</g>
						<g>
							<ellipse class="st6" cx="21.8" cy="19.9" rx="0.6" ry="0.2"/>
						</g>
						<g>
							<ellipse class="st6" cx="23.5" cy="29.6" rx="0.6" ry="0.2"/>
						</g>
						<g>
							<ellipse class="st6" cx="31.3" cy="28.3" rx="0.6" ry="0.2"/>
						</g>
						<g>
							<ellipse class="st6" cx="30.7" cy="23.7" rx="0.6" ry="0.2"/>
						</g>
						<g>
							
								<ellipse transform="matrix(0.2947 -0.9556 0.9556 0.2947 -10.0994 38.3853)" class="st6" cx="21" cy="26" rx="0.2" ry="0.7"/>
						</g>
						<g>
							
								<ellipse transform="matrix(0.2947 -0.9556 0.9556 0.2947 -8.4538 47.0802)" class="st6" cx="27.7" cy="29.3" rx="0.2" ry="0.7"/>
						</g>
						<g>
							
								<ellipse transform="matrix(0.2947 -0.9556 0.9556 0.2947 2.106 43.3353)" class="st6" cx="30.4" cy="20.2" rx="0.2" ry="0.7"/>
						</g>
						<g>
							
								<ellipse transform="matrix(0.9036 -0.4283 0.4283 0.9036 -8.127 10.9044)" class="st6" cx="20.2" cy="23.5" rx="0.7" ry="0.2"/>
						</g>
						<g>
							
								<ellipse transform="matrix(0.9036 -0.4283 0.4283 0.9036 -8.1129 15.7664)" class="st6" cx="31" cy="25.9" rx="0.7" ry="0.2"/>
						</g>
						<g>
							
								<ellipse transform="matrix(0.9036 -0.4283 0.4283 0.9036 -10.2968 11.8883)" class="st6" cx="21.3" cy="28.8" rx="0.7" ry="0.2"/>
						</g>
						<g>
							
								<ellipse transform="matrix(0.9036 -0.4283 0.4283 0.9036 -5.6627 13.7197)" class="st6" cx="27.7" cy="19.4" rx="0.7" ry="0.2"/>
						</g>
					</g>
					<g>
						<path class="st7" d="M29.5,24.9c0,1.8-2.1,2.7-3.9,2.7c-4.3,0.1-3-2.6-3-4.4c0-1.8,1.7-2.3,3.5-2.4
							C30.4,20.7,29.5,23.1,29.5,24.9z"/>
					</g>
					<g>
						<path class="st4" d="M24.3,25.9L24.3,25.9c-1.3-0.3-2.2-1.6-1.9-2.9l0,0c0.3-1.3,1.6-2.2,2.9-1.9l0,0c1.3,0.3,2.2,1.6,1.9,2.9
							l0,0C26.9,25.3,25.6,26.2,24.3,25.9z"/>
					</g>
					<circle class="st8" cx="24.3" cy="22.4" r="1.1"/>
					<g>
						<path class="st9" d="M26.9,21.5c0,0.2,0.1,0.4,0,0.6l-0.5,2.4c-0.1,0.7-0.8,1.1-1.5,1L22.5,25c-0.2,0-0.3-0.1-0.4-0.2
							c0.1,0.5,0.5,0.8,1,0.9l2.4,0.5c0.7,0.1,1.4-0.3,1.5-1l0.5-2.4C27.5,22.3,27.3,21.8,26.9,21.5z"/>
					</g>
					<g>
						<path class="st10" d="M23.8,25.8l-0.7-0.1c1.5-2.3,4.4-2.9,4.4-2.9l-0.1,0.4C27.3,23.1,25.2,23.6,23.8,25.8z"/>
					</g>
					<g>
						<path class="st10" d="M22.5,22.4l0.1-0.6c1.3-0.9,2.9-0.7,3-0.7l0.6,0.1C26.1,21.3,23.7,21.5,22.5,22.4z"/>
					</g>
					<polygon class="st10" points="26.6,30.2 26.2,31.7 27,31.7 27.5,30.2 					"/>
					<path class="st10" d="M18.4,29.5l1.5-0.3c0,0-0.2-0.2-0.3-0.5l-1.5,0.2C18.1,28.9,18.1,29.1,18.4,29.5z"/>
					<path class="st10" d="M27.1,21.7c0,0-2.7-0.5-4.8,1.5l-0.2,1.1c2-1.9,5.2-2.2,5.3-2.2C27.3,21.9,27.1,21.7,27.1,21.7z"/>
					<polygon class="st10" points="17.9,21.4 19.3,21.6 19.3,22 17.9,22.1 					"/>
					<polygon class="st10" points="17.9,24.1 19.3,24.1 19.3,24.6 17.9,24.8 					"/>
					<polygon class="st10" points="21.8,16.8 22.1,18.2 23.1,18.2 22.6,16.8 					"/>
					<polygon class="st10" points="27.2,18.2 26.5,18.2 26.8,16.8 27.4,16.8 					"/>
					<polygon class="st10" points="33.9,20.8 32.5,21 32.5,21.6 33.9,21.4 					"/>
					<polygon class="st10" points="33.9,23.6 32.5,23.7 32.5,24.3 33.9,24.2 					"/>
					<path class="st10" d="M32.5,27.6l1.4,0.3c0,0,0,0.5-0.2,0.8l-1.3-0.4C32.4,28.3,32.5,27.9,32.5,27.6z"/>
					<path class="st10" d="M29.8,18.2l0.8-1.4c0,0-0.3-0.1-0.8-0.1l-0.5,1.5H29.8z"/>
					<rect x="25.1" y="23.9" class="st11" width="4" height="3.2"/>
					<polygon class="st12" points="28.7,23.9 28.7,26.5 25.1,26.5 25.1,27 29.1,27 29.1,23.9 					"/>
					<path class="st13" d="M27.5,25.5H26c-0.3,0-0.6-0.3-0.6-0.6l0,0c0-0.3,0.3-0.6,0.6-0.6h1.5c0.3,0,0.6,0.3,0.6,0.6l0,0
						C28.1,25.2,27.8,25.5,27.5,25.5z"/>
				</g>
				<g>
					<g>
						<g>
							<path class="st3" d="M10.5,30.6H9.2c-3.5,0-6.3-2.9-6.3-6.3l0,0c0-3.5,2.9-6.3,6.3-6.3h1.3c3.5,0,6.3,2.9,6.3,6.3l0,0
								C16.8,27.7,13.9,30.6,10.5,30.6z"/>
						</g>
						<g>
							<g>
								<path class="st18" d="M13.8,31.7H5.9c-2.3,0-4.1-1.8-4.1-4.1v-6.8c0-2.3,1.8-4.1,4.1-4.1h7.9c2.3,0,4.1,1.8,4.1,4.1v6.8
									C17.9,29.9,16,31.7,13.8,31.7z M5.9,18.2c-1.4,0-2.6,1.2-2.6,2.6v6.8c0,1.4,1.2,2.6,2.6,2.6h7.9c1.4,0,2.6-1.2,2.6-2.6v-6.8
									c0-1.4-1.2-2.6-2.6-2.6C13.8,18.2,5.9,18.2,5.9,18.2z"/>
							</g>
						</g>
						<g>
							<path class="st5" d="M10.1,27.9H9.5c-2,0-3.6-1.6-3.6-3.6l0,0c0-2,1.6-3.6,3.6-3.6h0.6c2,0,3.6,1.6,3.6,3.6l0,0
								C13.8,26.2,12.1,27.9,10.1,27.9z"/>
						</g>
						<g>
							<ellipse class="st6" cx="8.8" cy="19.3" rx="0.6" ry="0.2"/>
						</g>
						<g>
							<ellipse class="st6" cx="5.7" cy="19.9" rx="0.6" ry="0.2"/>
						</g>
						<g>
							<ellipse class="st6" cx="7.4" cy="29.6" rx="0.6" ry="0.2"/>
						</g>
						<g>
							<ellipse class="st6" cx="15.2" cy="28.3" rx="0.6" ry="0.2"/>
						</g>
						<g>
							<ellipse class="st6" cx="14.7" cy="23.7" rx="0.6" ry="0.2"/>
						</g>
						<g>
							
								<ellipse transform="matrix(0.2947 -0.9556 0.9556 0.2947 -21.4644 23.0299)" class="st6" cx="4.9" cy="26.1" rx="0.2" ry="0.7"/>
						</g>
						<g>
							
								<ellipse transform="matrix(0.2947 -0.9556 0.9556 0.2947 -19.8197 31.7262)" class="st6" cx="11.6" cy="29.3" rx="0.2" ry="0.7"/>
						</g>
						<g>
							
								<ellipse transform="matrix(0.2947 -0.9556 0.9556 0.2947 -9.2578 27.9782)" class="st6" cx="14.3" cy="20.3" rx="0.2" ry="0.7"/>
						</g>
						<g>
							
								<ellipse transform="matrix(0.9036 -0.4283 0.4283 0.9036 -9.6831 4.0103)" class="st6" cx="4.1" cy="23.5" rx="0.7" ry="0.2"/>
						</g>
						<g>
							
								<ellipse transform="matrix(0.9036 -0.4283 0.4283 0.9036 -9.6684 8.8726)" class="st6" cx="14.9" cy="25.9" rx="0.7" ry="0.2"/>
						</g>
						<g>
							
								<ellipse transform="matrix(0.9036 -0.4283 0.4283 0.9036 -11.8528 4.9941)" class="st6" cx="5.2" cy="28.8" rx="0.7" ry="0.2"/>
						</g>
						<g>
							
								<ellipse transform="matrix(0.9036 -0.4283 0.4283 0.9036 -7.1912 6.8604)" class="st6" cx="11.6" cy="19.4" rx="0.7" ry="0.2"/>
						</g>
					</g>
					<g>
						<path class="st7" d="M13.4,24.9c0,1.8-2.1,2.7-3.9,2.7c-4.3,0.1-3-2.6-3-4.4c0-1.8,1.7-2.3,3.5-2.4
							C14.3,20.7,13.4,23.1,13.4,24.9z"/>
					</g>
					<g>
						<path class="st18" d="M8.2,25.9L8.2,25.9C6.9,25.6,6,24.3,6.3,23l0,0c0.3-1.3,1.6-2.2,2.9-1.9l0,0c1.3,0.3,2.2,1.6,1.9,2.9
							l0,0C10.8,25.3,9.5,26.2,8.2,25.9z"/>
					</g>
					<circle class="st15" cx="8.2" cy="22.4" r="1.1"/>
					<g>
						<path class="st16" d="M10.8,21.5c0,0.2,0.1,0.4,0,0.6l-0.5,2.4c-0.1,0.7-0.8,1.1-1.5,1L6.4,25c-0.2,0-0.3-0.1-0.4-0.2
							c0.1,0.5,0.5,0.8,1,0.9l2.4,0.5c0.7,0.1,1.4-0.3,1.5-1l0.5-2.4C11.5,22.3,11.2,21.8,10.8,21.5z"/>
					</g>
					<g>
						<path class="st17" d="M7.7,25.8L7,25.7c1.5-2.3,4.4-2.9,4.4-2.9l-0.1,0.4C11.3,23.1,9.1,23.6,7.7,25.8z"/>
					</g>
					<g>
						<path class="st17" d="M6.4,22.4l0.1-0.6c1.3-0.9,2.9-0.7,3-0.7l0.6,0.1C10,21.3,7.6,21.5,6.4,22.4z"/>
					</g>
					<polygon class="st17" points="10.6,30.2 10.1,31.7 10.9,31.7 11.4,30.2 					"/>
					<path class="st17" d="M2.3,29.5l1.5-0.3c0,0-0.2-0.2-0.3-0.5L2,28.9C2,28.9,2,29.1,2.3,29.5z"/>
					<path class="st17" d="M11.1,21.7c0,0-2.7-0.5-4.8,1.5L6,24.3c2-1.9,5.2-2.2,5.3-2.2C11.2,21.9,11.1,21.7,11.1,21.7z"/>
					<polygon class="st17" points="1.8,21.4 3.3,21.6 3.3,22 1.8,22.1 					"/>
					<polygon class="st17" points="1.8,24.1 3.3,24.1 3.3,24.6 1.8,24.8 					"/>
					<polygon class="st17" points="5.7,16.8 6,18.2 7.1,18.2 6.6,16.8 					"/>
					<polygon class="st17" points="11.1,18.2 10.5,18.2 10.7,16.8 11.4,16.8 					"/>
					<polygon class="st17" points="17.9,20.8 16.4,21 16.4,21.6 17.9,21.4 					"/>
					<polygon class="st17" points="17.9,23.6 16.4,23.7 16.4,24.3 17.9,24.2 					"/>
					<path class="st17" d="M16.4,27.6l1.4,0.3c0,0,0,0.5-0.2,0.8l-1.3-0.4C16.3,28.3,16.4,27.9,16.4,27.6z"/>
					<path class="st17" d="M13.8,18.2l0.8-1.4c0,0-0.3-0.1-0.8-0.1l-0.5,1.5H13.8z"/>
					<rect x="9.1" y="23.9" class="st11" width="4" height="3.2"/>
					<polygon class="st12" points="12.6,23.9 12.6,26.5 9.1,26.5 9.1,27 13.1,27 13.1,23.9 					"/>
					<path class="st13" d="M11.4,25.5H9.9c-0.3,0-0.6-0.3-0.6-0.6l0,0c0-0.3,0.3-0.6,0.6-0.6h1.5c0.3,0,0.6,0.3,0.6,0.6l0,0
						C12,25.2,11.7,25.5,11.4,25.5z"/>
				</g>
				<g>
					<g>
						<g>
							<g>
								<path class="st3" d="M42.6,30.6h-1.3c-3.5,0-6.3-2.9-6.3-6.3l0,0c0-3.5,2.9-6.3,6.3-6.3h1.3c3.5,0,6.3,2.9,6.3,6.3l0,0
									C48.9,27.7,46.1,30.6,42.6,30.6z"/>
							</g>
							<g>
								<g>
									<path class="st4" d="M45.9,31.7H38c-2.3,0-4.1-1.8-4.1-4.1v-6.8c0-2.3,1.8-4.1,4.1-4.1h7.9c2.3,0,4.1,1.8,4.1,4.1v6.8
										C50,29.9,48.2,31.7,45.9,31.7z M38,18.2c-1.4,0-2.6,1.2-2.6,2.6v6.8c0,1.4,1.2,2.6,2.6,2.6h7.9c1.4,0,2.6-1.2,2.6-2.6v-6.8
										c0-1.4-1.2-2.6-2.6-2.6C45.9,18.2,38,18.2,38,18.2z"/>
								</g>
							</g>
							<g>
								<path class="st5" d="M42.3,27.9h-0.6c-2,0-3.6-1.6-3.6-3.6l0,0c0-2,1.6-3.6,3.6-3.6h0.6c2,0,3.6,1.6,3.6,3.6l0,0
									C45.9,26.2,44.3,27.9,42.3,27.9z"/>
							</g>
							<g>
								<ellipse class="st6" cx="40.9" cy="19.3" rx="0.6" ry="0.2"/>
							</g>
							<g>
								<ellipse class="st6" cx="37.9" cy="19.9" rx="0.6" ry="0.2"/>
							</g>
							<g>
								<ellipse class="st6" cx="39.6" cy="29.6" rx="0.6" ry="0.2"/>
							</g>
							<g>
								<ellipse class="st6" cx="47.3" cy="28.3" rx="0.6" ry="0.2"/>
							</g>
							<g>
								<ellipse class="st6" cx="46.8" cy="23.7" rx="0.6" ry="0.2"/>
							</g>
							<g>
								<ellipse transform="matrix(0.2947 -0.9556 0.9556 0.2947 1.2696 53.726)" class="st6" cx="37" cy="26" rx="0.2" ry="0.7"/>
							</g>
							<g>
								
									<ellipse transform="matrix(0.2947 -0.9556 0.9556 0.2947 2.9158 62.4195)" class="st6" cx="43.7" cy="29.2" rx="0.2" ry="0.7"/>
							</g>
							<g>
								
									<ellipse transform="matrix(0.2947 -0.9556 0.9556 0.2947 13.3641 58.7127)" class="st6" cx="46.5" cy="20.3" rx="0.2" ry="0.7"/>
							</g>
							<g>
								
									<ellipse transform="matrix(0.9036 -0.4283 0.4283 0.9036 -6.5968 17.7626)" class="st6" cx="36.2" cy="23.5" rx="0.7" ry="0.2"/>
							</g>
							<g>
								
									<ellipse transform="matrix(0.9036 -0.4283 0.4283 0.9036 -6.5835 22.6246)" class="st6" cx="47" cy="25.9" rx="0.7" ry="0.2"/>
							</g>
							<g>
								
									<ellipse transform="matrix(0.9036 -0.4283 0.4283 0.9036 -8.7393 18.7811)" class="st6" cx="37.4" cy="28.8" rx="0.7" ry="0.2"/>
							</g>
							<g>
								
									<ellipse transform="matrix(0.9036 -0.4283 0.4283 0.9036 -4.1054 20.6125)" class="st6" cx="43.8" cy="19.4" rx="0.7" ry="0.2"/>
							</g>
						</g>
						<polygon class="st10" points="42.7,30.2 42.2,31.7 43,31.7 43.6,30.2 						"/>
						<path class="st10" d="M34.4,29.5l1.5-0.3c0,0-0.2-0.2-0.3-0.5l-1.5,0.2C34.1,28.9,34.2,29.1,34.4,29.5z"/>
						<polygon class="st10" points="33.9,21.4 35.4,21.6 35.4,22 33.9,22.1 						"/>
						<polygon class="st10" points="33.9,24.1 35.4,24.1 35.4,24.6 33.9,24.8 						"/>
						<polygon class="st10" points="37.9,16.8 38.2,18.2 39.2,18.2 38.7,16.8 						"/>
						<polygon class="st10" points="43.3,18.2 42.6,18.2 42.8,16.8 43.5,16.8 						"/>
						<polygon class="st10" points="50,20.8 48.5,21 48.5,21.6 50,21.4 						"/>
						<polygon class="st10" points="50,23.6 48.5,23.7 48.5,24.3 50,24.2 						"/>
						<path class="st10" d="M48.5,27.6l1.4,0.3c0,0,0,0.5-0.2,0.8l-1.2-0.4C48.5,28.3,48.5,27.9,48.5,27.6z"/>
						<path class="st10" d="M45.9,18.2l0.8-1.4c0,0-0.3-0.1-0.8-0.1l-0.5,1.5H45.9z"/>
					</g>
					<g>
						<g>
							<circle class="st19" cx="44.9" cy="23.4" r="1.2"/>
							<circle class="st20" cx="44.6" cy="23.1" r="0.5"/>
						</g>
						<g>
							<circle class="st19" cx="42" cy="23.8" r="1.2"/>
							<circle class="st20" cx="41.8" cy="23.4" r="0.5"/>
						</g>
						<g>
							<circle class="st19" cx="40.1" cy="23.9" r="1.2"/>
							<circle class="st20" cx="39.8" cy="23.5" r="0.5"/>
						</g>
						<g>
							<circle class="st19" cx="40.2" cy="21.5" r="1.2"/>
							<circle class="st20" cx="40" cy="21.1" r="0.5"/>
						</g>
						<g>
							<circle class="st21" cx="45" cy="25.5" r="1.2"/>
							<circle class="st22" cx="44.7" cy="25.1" r="0.5"/>
						</g>
						<g>
							<circle class="st19" cx="43" cy="25.5" r="1.2"/>
							<circle class="st20" cx="42.7" cy="25.1" r="0.5"/>
						</g>
						<g>
							<circle class="st21" cx="41" cy="25.5" r="1.2"/>
							<circle class="st22" cx="40.7" cy="25.1" r="0.5"/>
						</g>
						<g>
							<circle class="st21" cx="39.2" cy="23.3" r="1.2"/>
							<circle class="st22" cx="38.9" cy="22.9" r="0.5"/>
						</g>
						<g>
							<circle class="st21" cx="42" cy="20.9" r="1.2"/>
							<circle class="st22" cx="41.7" cy="20.5" r="0.5"/>
						</g>
						<g>
							<circle class="st21" cx="41" cy="22.2" r="1.2"/>
							<circle class="st22" cx="40.7" cy="21.8" r="0.5"/>
						</g>
						<g>
							<circle class="st21" cx="44" cy="26.8" r="1.2"/>
							<circle class="st22" cx="43.7" cy="26.4" r="0.5"/>
						</g>
						<g>
							<circle class="st21" cx="39.9" cy="26.9" r="1.2"/>
							<circle class="st22" cx="39.6" cy="26.5" r="0.5"/>
						</g>
						<g>
							<circle class="st21" cx="43.8" cy="23.8" r="1.2"/>
							<circle class="st22" cx="43.5" cy="23.4" r="0.5"/>
						</g>
						<g>
							<circle class="st21" cx="43.6" cy="21.8" r="1.2"/>
							<circle class="st22" cx="43.4" cy="21.4" r="0.5"/>
						</g>
						<g>
							<circle class="st19" cx="38.9" cy="25.5" r="1.2"/>
							<circle class="st20" cx="38.7" cy="25.1" r="0.5"/>
						</g>
						<g>
							<circle class="st19" cx="42.8" cy="22.3" r="1.2"/>
							<circle class="st20" cx="42.5" cy="21.9" r="0.5"/>
						</g>
						<g>
							<circle class="st19" cx="41.8" cy="26.7" r="1.2"/>
							<circle class="st20" cx="41.5" cy="26.4" r="0.5"/>
						</g>
					</g>
				</g>
			</g>
		</g>
	</g>
</g>
</svg>
