<?xml version="1.0" encoding="utf-8"?>
<!-- Generator: Adobe Illustrator 25.2.1, SVG Export Plug-In . SVG Version: 6.00 Build 0)  -->
<svg version="1.1" id="Слой_1" xmlns="http://www.w3.org/2000/svg" xmlns:xlink="http://www.w3.org/1999/xlink" x="0px" y="0px"
	 viewBox="0 0 25.5 36.8" style="enable-background:new 0 0 25.5 36.8;" xml:space="preserve">
<style type="text/css">
	.st0{fill:url(#SVGID_1_);}
	.st1{fill:url(#SVGID_2_);}
	.st2{fill:url(#SVGID_3_);}
	.st3{fill:url(#SVGID_4_);}
	.st4{opacity:0.5;fill:#FFFFFF;enable-background:new    ;}
	.st5{fill:url(#SVGID_5_);}
	.st6{fill:#00E654;}
	.st7{fill:url(#SVGID_6_);}
	.st8{fill:#EE4230;}
	.st9{fill:#8A0707;}
	.st10{fill:url(#SVGID_7_);}
	.st11{fill:#DAEDED;}
</style>
<g>
	<g>
		
			<linearGradient id="SVGID_1_" gradientUnits="userSpaceOnUse" x1="905.8067" y1="22.0691" x2="905.8067" y2="41.4429" gradientTransform="matrix(-1 0 0 -1 922.8885 42.2979)">
			<stop  offset="0.4424" style="stop-color:#C46D1D"/>
			<stop  offset="0.4697" style="stop-color:#C77120"/>
			<stop  offset="0.8229" style="stop-color:#EC9F48"/>
			<stop  offset="1" style="stop-color:#FAB157"/>
		</linearGradient>
		<path class="st0" d="M15,20.2L15,20.2c-0.4-0.1-0.6-0.4-0.5-0.7l4.1-18.2C18.7,1,19,0.8,19.3,0.9s0.5,0.4,0.4,0.7l-4.1,18.2
			C15.5,20,15.2,20.2,15,20.2z"/>
	</g>
	<g>
		
			<linearGradient id="SVGID_2_" gradientUnits="userSpaceOnUse" x1="904.8067" y1="20.1223" x2="904.8067" y2="38.6492" gradientTransform="matrix(-1 0 0 -1 922.8885 42.2979)">
			<stop  offset="0.4424" style="stop-color:#C46D1D"/>
			<stop  offset="0.4697" style="stop-color:#C77120"/>
			<stop  offset="0.8229" style="stop-color:#EC9F48"/>
			<stop  offset="1" style="stop-color:#FAB157"/>
		</linearGradient>
		<path class="st1" d="M14.7,22.1c-0.1,0-0.1,0-0.2,0c-0.3-0.1-0.4-0.4-0.3-0.7L21,4c0.1-0.3,0.4-0.4,0.7-0.3
			C22,3.8,22.1,4.1,22,4.4l-6.7,17.4C15.2,22,14.9,22.2,14.7,22.1z"/>
	</g>
	<g>
		
			<linearGradient id="SVGID_3_" gradientUnits="userSpaceOnUse" x1="899.8987" y1="22.5635" x2="899.8987" y2="31.7081" gradientTransform="matrix(-1 0 0 -1 922.8885 42.2979)">
			<stop  offset="4.848480e-02" style="stop-color:#6AC4C4"/>
			<stop  offset="8.136153e-02" style="stop-color:#6DC6C6"/>
			<stop  offset="0.6965" style="stop-color:#9FE2E2"/>
			<stop  offset="1" style="stop-color:#B2EDED"/>
		</linearGradient>
		<path class="st2" d="M22.5,19.7c0.3,0,0.5-0.2,0.5-0.5l1.1-8.1c0-0.5,0.1-0.6-0.2-0.6c-0.4,0-0.9,0.3-0.9,0.6l-1.1,8
			C21.9,19.4,22.1,19.6,22.5,19.7C22.4,19.7,22.5,19.7,22.5,19.7z"/>
	</g>
	<g>
		
			<linearGradient id="SVGID_4_" gradientUnits="userSpaceOnUse" x1="920.9147" y1="22.5635" x2="920.9147" y2="31.7081" gradientTransform="matrix(-1 0 0 -1 922.8885 42.2979)">
			<stop  offset="4.848480e-02" style="stop-color:#6AC4C4"/>
			<stop  offset="8.136153e-02" style="stop-color:#6DC6C6"/>
			<stop  offset="0.6965" style="stop-color:#9FE2E2"/>
			<stop  offset="1" style="stop-color:#B2EDED"/>
		</linearGradient>
		<path class="st3" d="M2.5,19.7c-0.3,0-0.5-0.2-0.5-0.5l-1.1-8.1c0-0.5-0.1-0.6,0.2-0.6c0.4,0,0.9,0.3,0.9,0.6L3.1,19
			C3.1,19.4,2.9,19.6,2.5,19.7C2.6,19.7,2.6,19.7,2.5,19.7z"/>
	</g>
	<path class="st4" d="M24,10.8c-0.4,0-0.9,0.3-0.9,0.6L22,19.2c0-0.1,0-0.1,0-0.2l1.1-7.9c0-0.3,0.6-0.6,0.9-0.6
		c0.2,0,0.2,0,0.2,0.3C24.1,10.8,24.1,10.8,24,10.8z"/>
	<path class="st4" d="M2,11.4c0-0.3-0.6-0.6-0.9-0.6c-0.1,0-0.2,0-0.2,0.1c0-0.2,0-0.3,0.2-0.3c0.4,0,0.9,0.3,0.9,0.6l1.1,7.9
		c0,0.1,0,0.1,0,0.1L2,11.4z"/>
	
		<linearGradient id="SVGID_5_" gradientUnits="userSpaceOnUse" x1="910.4067" y1="6.413" x2="910.4067" y2="26.713" gradientTransform="matrix(-1 0 0 -1 922.8885 42.2979)">
		<stop  offset="4.848480e-02" style="stop-color:#6AC4C4"/>
		<stop  offset="8.136153e-02" style="stop-color:#6DC6C6"/>
		<stop  offset="0.6965" style="stop-color:#9FE2E2"/>
		<stop  offset="1" style="stop-color:#B2EDED"/>
	</linearGradient>
	<polygon class="st5" points="12.5,15.5 1.4,15.5 4.5,35.8 12.5,35.8 20.5,35.8 23.6,15.5 	"/>
	<polygon class="st6" points="4.5,35 12.5,35 20.5,35 23.5,15.5 23.6,15.5 20.5,35.8 12.5,35.8 4.5,35.8 1.4,15.5 1.5,15.5 	"/>
	
		<linearGradient id="SVGID_6_" gradientUnits="userSpaceOnUse" x1="910.4067" y1="9.6692" x2="910.4067" y2="23.8863" gradientTransform="matrix(-1 0 0 -1 922.8885 42.2979)">
		<stop  offset="0" style="stop-color:#A80909"/>
		<stop  offset="0.8611" style="stop-color:#E63B2B"/>
		<stop  offset="1" style="stop-color:#F04431"/>
	</linearGradient>
	<path class="st7" d="M17.5,29.1c-0.9,0-1.4-1.4-1.4-1.5l0,0v-0.4v-1.8l0,0c0,0,1.5,0,1.5-1.4c0,0-0.3,0.7-1.1,0.7
		c-0.7,0-1.1-1.1-1.1-1.2l0,0v-0.2v-0.1v-1.5l0,0c0,0,1.2,0,1.2-1.1c0,0-0.2,0.6-0.9,0.6c-0.6,0-0.9-0.9-0.9-1
		c-0.6-1.8-2.3-1.8-2.3-1.8s-1.8,0-2.3,1.8c0,0.1-0.3,1-0.9,1c-0.7,0-0.9-0.6-0.9-0.6c0,1.1,1.2,1.1,1.2,1.1l0,0v1.5v0.1v0.2l0,0
		c0,0.1-0.4,1.2-1.1,1.2c-0.8,0-1.1-0.7-1.1-0.7c0.1,1.3,1.5,1.4,1.5,1.4l0,0v1.8v0.4l0,0c0,0.2-0.5,1.5-1.4,1.5
		c-1,0-1.4-0.9-1.4-0.9C6.2,29.8,8,29.9,8,29.9v0.3v1.9v0.5h8.7v-0.5v-1.9v-0.3H17c0,0,1.8,0,1.9-1.7C18.9,28.3,18.5,29.1,17.5,29.1
		z M14,22.2c0-0.3,0.1-0.4,0.3-0.4s0.3,0.1,0.3,0.4c0,0.3,0,0.8,0,0.8h-0.3H14C14,23,14,22.5,14,22.2z M13.1,22.2
		c0-0.3,0.1-0.4,0.3-0.4s0.3,0.1,0.3,0.4c0,0.3,0,0.8,0,0.8h-0.3h-0.3C13.1,23,13.1,22.5,13.1,22.2z M12.2,22.2
		c0-0.3,0.1-0.4,0.3-0.4s0.3,0.1,0.3,0.4c0,0.3,0,0.8,0,0.8h-0.3h-0.3C12.2,23,12.2,22.5,12.2,22.2z M11.3,22.2
		c0-0.3,0.1-0.4,0.3-0.4s0.3,0.1,0.3,0.4c0,0.3,0,0.8,0,0.8h-0.3h-0.3C11.3,23,11.3,22.5,11.3,22.2z M10.4,22.2
		c0-0.3,0.1-0.4,0.3-0.4s0.3,0.1,0.3,0.4c0,0.3,0,0.8,0,0.8h-0.3h-0.3C10.4,23,10.4,22.5,10.4,22.2z M9.4,31.9H9H8.6
		c0,0,0-0.7,0-1.1c0-0.4,0.1-0.6,0.4-0.6c0.3,0,0.4,0.2,0.4,0.6S9.4,31.9,9.4,31.9z M10.5,31.9h-0.4H9.7c0,0,0-0.7,0-1.1
		c0-0.4,0.1-0.6,0.4-0.6c0.3,0,0.4,0.2,0.4,0.6S10.5,31.9,10.5,31.9z M10.5,27.1h-0.4H9.7c0,0,0-0.7,0-1.1c0-0.4,0.1-0.6,0.4-0.6
		c0.3,0,0.4,0.2,0.4,0.6S10.5,27.1,10.5,27.1z M11.7,31.9h-0.4h-0.4c0,0,0-0.7,0-1.1c0-0.4,0.1-0.6,0.4-0.6c0.3,0,0.4,0.2,0.4,0.6
		S11.7,31.9,11.7,31.9z M11.7,27.1h-0.4h-0.4c0,0,0-0.7,0-1.1c0-0.4,0.1-0.6,0.4-0.6c0.3,0,0.4,0.2,0.4,0.6S11.7,27.1,11.7,27.1z
		 M12.8,31.9h-0.4H12c0,0,0-0.7,0-1.1c0-0.4,0.1-0.6,0.4-0.6c0.3,0,0.4,0.2,0.4,0.6S12.8,31.9,12.8,31.9z M12.8,27.1h-0.4H12
		c0,0,0-0.7,0-1.1c0-0.4,0.1-0.6,0.4-0.6c0.3,0,0.4,0.2,0.4,0.6S12.8,27.1,12.8,27.1z M13.9,31.9h-0.4h-0.4c0,0,0-0.7,0-1.1
		c0-0.4,0.1-0.6,0.4-0.6c0.3,0,0.4,0.2,0.4,0.6S13.9,31.9,13.9,31.9z M13.9,27.1h-0.4h-0.4c0,0,0-0.7,0-1.1c0-0.4,0.1-0.6,0.4-0.6
		c0.3,0,0.4,0.2,0.4,0.6S13.9,27.1,13.9,27.1z M15,31.9h-0.4h-0.4c0,0,0-0.7,0-1.1c0-0.4,0.1-0.6,0.4-0.6c0.3,0,0.4,0.2,0.4,0.6
		S15,31.9,15,31.9z M15,27.1h-0.4h-0.4c0,0,0-0.7,0-1.1c0-0.4,0.1-0.6,0.4-0.6c0.3,0,0.4,0.2,0.4,0.6S15,27.1,15,27.1z M16.2,31.9
		h-0.4h-0.4c0,0,0-0.7,0-1.1c0-0.4,0.1-0.6,0.4-0.6c0.3,0,0.4,0.2,0.4,0.6S16.2,31.9,16.2,31.9z"/>
	<g>
		<path class="st8" d="M12.4,30.1c0.3,0,0.4,0.2,0.4,0.6c0,0.1,0,0.1,0,0.2c0-0.4-0.1-0.6-0.4-0.6c-0.3,0-0.4,0.2-0.4,0.6
			c0-0.1,0-0.1,0-0.2C12,30.3,12.1,30.1,12.4,30.1z"/>
		<path class="st8" d="M14.3,21.6c0.2,0,0.3,0.1,0.3,0.4c0,0.1,0,0.1,0,0.2c0-0.3-0.1-0.4-0.3-0.4S14,21.9,14,22.2
			c0-0.1,0-0.1,0-0.2C14,21.8,14.1,21.6,14.3,21.6z"/>
		<path class="st8" d="M14.6,25.3c0.3,0,0.4,0.2,0.4,0.6c0,0.1,0,0.1,0,0.2c0-0.4-0.1-0.6-0.4-0.6c-0.3,0-0.4,0.2-0.4,0.6
			c0-0.1,0-0.1,0-0.2C14.2,25.4,14.4,25.3,14.6,25.3z"/>
		<path class="st8" d="M12.4,25.3c0.3,0,0.4,0.2,0.4,0.6c0,0.1,0,0.1,0,0.2c0-0.4-0.1-0.6-0.4-0.6c-0.3,0-0.4,0.2-0.4,0.6
			c0-0.1,0-0.1,0-0.2C12,25.4,12.1,25.3,12.4,25.3z"/>
		<path class="st8" d="M10.7,21.6c0.2,0,0.3,0.1,0.3,0.4c0,0.1,0,0.1,0,0.2c0-0.3-0.1-0.4-0.3-0.4s-0.3,0.1-0.3,0.4
			c0-0.1,0-0.1,0-0.2C10.4,21.8,10.5,21.6,10.7,21.6z"/>
		<path class="st8" d="M13.5,25.3c0.3,0,0.4,0.2,0.4,0.6c0,0.1,0,0.1,0,0.2c0-0.4-0.1-0.6-0.4-0.6c-0.3,0-0.4,0.2-0.4,0.6
			c0-0.1,0-0.1,0-0.2C13.1,25.4,13.2,25.3,13.5,25.3z"/>
		<path class="st8" d="M13.4,21.6c0.2,0,0.3,0.1,0.3,0.4c0,0.1,0,0.1,0,0.2c0-0.3-0.1-0.4-0.3-0.4s-0.3,0.1-0.3,0.4
			c0-0.1,0-0.1,0-0.2C13.1,21.8,13.2,21.6,13.4,21.6z"/>
		<path class="st8" d="M11.6,21.6c0.2,0,0.3,0.1,0.3,0.4c0,0.1,0,0.1,0,0.2c0-0.3-0.1-0.4-0.3-0.4s-0.3,0.1-0.3,0.4
			c0-0.1,0-0.1,0-0.2C11.3,21.8,11.4,21.6,11.6,21.6z"/>
		<path class="st8" d="M13.5,30.1c0.3,0,0.4,0.2,0.4,0.6c0,0.1,0,0.1,0,0.2c0-0.4-0.1-0.6-0.4-0.6c-0.3,0-0.4,0.2-0.4,0.6
			c0-0.1,0-0.1,0-0.2C13.1,30.3,13.2,30.1,13.5,30.1z"/>
		<path class="st8" d="M16.1,27.4L16.1,27.4L16.1,27.4C16.1,27.5,16.1,27.4,16.1,27.4z"/>
		<path class="st8" d="M15.8,30.1c0.3,0,0.4,0.2,0.4,0.6c0,0.1,0,0.1,0,0.2c0-0.4-0.1-0.6-0.4-0.6c-0.3,0-0.4,0.2-0.4,0.6
			c0-0.1,0-0.1,0-0.2C15.4,30.3,15.5,30.1,15.8,30.1z"/>
		<path class="st8" d="M14.6,30.1c0.3,0,0.4,0.2,0.4,0.6c0,0.1,0,0.1,0,0.2c0-0.4-0.1-0.6-0.4-0.6c-0.3,0-0.4,0.2-0.4,0.6
			c0-0.1,0-0.1,0-0.2C14.2,30.3,14.4,30.1,14.6,30.1z"/>
		<path class="st8" d="M12.5,21.6c0.2,0,0.3,0.1,0.3,0.4c0,0.1,0,0.1,0,0.2c0-0.3-0.1-0.4-0.3-0.4s-0.3,0.1-0.3,0.4
			c0-0.1,0-0.1,0-0.2C12.2,21.8,12.3,21.6,12.5,21.6z"/>
		<path class="st8" d="M16.1,25.4L16.1,25.4v-0.2l0,0c0,0,1.3,0,1.5-1.1V24C17.6,25.3,16.1,25.4,16.1,25.4z"/>
		<path class="st8" d="M15.4,21.7L15.4,21.7v-0.2l0,0c0,0,0.9,0,1.2-0.8c0-0.1,0.1-0.1,0.1-0.1C16.6,21.7,15.4,21.7,15.4,21.7z"/>
		<path class="st8" d="M16.7,29.8H17c0,0,1.6,0,1.9-1.4v-0.1C18.8,29.9,17,30,17,30h-0.3V29.8z"/>
		<path class="st8" d="M9,30.1c0.3,0,0.4,0.2,0.4,0.6c0,0.1,0,0.1,0,0.2c0-0.4-0.1-0.6-0.4-0.6c-0.3,0-0.4,0.2-0.4,0.6
			c0-0.1,0-0.1,0-0.2C8.6,30.3,8.7,30.1,9,30.1z"/>
		<path class="st8" d="M8,29.8V30c0,0-1.8,0-1.9-1.7c0,0,0,0,0,0.1C6.4,29.7,8,29.8,8,29.8z"/>
		<rect x="8" y="32.4" class="st8" width="8.7" height="0.2"/>
		<path class="st8" d="M8.9,25.2L8.9,25.2v0.2l0,0c0,0-1.5,0-1.5-1.4c0,0,0,0,0,0.1C7.6,25.2,8.9,25.2,8.9,25.2z"/>
		<path class="st8" d="M10.1,30.1c0.3,0,0.4,0.2,0.4,0.6c0,0.1,0,0.1,0,0.2c0-0.4-0.1-0.6-0.4-0.6c-0.3,0-0.4,0.2-0.4,0.6
			c0-0.1,0-0.1,0-0.2C9.7,30.3,9.8,30.1,10.1,30.1z"/>
		<path class="st8" d="M8.9,27.4L8.9,27.4L8.9,27.4L8.9,27.4z"/>
		<path class="st8" d="M11.2,25.3c0.3,0,0.4,0.2,0.4,0.6c0,0.1,0,0.1,0,0.2c0-0.4-0.1-0.6-0.4-0.6c-0.3,0-0.4,0.2-0.4,0.6
			c0-0.1,0-0.1,0-0.2C10.8,25.4,11,25.3,11.2,25.3z"/>
		<path class="st8" d="M10.1,25.3c0.3,0,0.4,0.2,0.4,0.6c0,0.1,0,0.1,0,0.2c0-0.4-0.1-0.6-0.4-0.6c-0.3,0-0.4,0.2-0.4,0.6
			c0-0.1,0-0.1,0-0.2C9.7,25.4,9.8,25.3,10.1,25.3z"/>
		<path class="st8" d="M9.6,21.5L9.6,21.5v0.2l0,0c0,0-1.2,0-1.2-1.1c0,0,0,0,0.1,0.1C8.6,21.5,9.6,21.5,9.6,21.5z"/>
		<path class="st8" d="M11.2,30.1c0.3,0,0.4,0.2,0.4,0.6c0,0.1,0,0.1,0,0.2c0-0.4-0.1-0.6-0.4-0.6c-0.3,0-0.4,0.2-0.4,0.6
			c0-0.1,0-0.1,0-0.2C10.8,30.3,11,30.1,11.2,30.1z"/>
	</g>
	<g>
		<path class="st9" d="M13.5,32.1h-0.4c0,0,0-0.1,0-0.2h0.4h0.4c0,0.1,0,0.2,0,0.2H13.5z"/>
		<path class="st9" d="M12.5,23.3h-0.3c0,0,0-0.1,0-0.2h0.3h0.3c0,0.1,0,0.2,0,0.2H12.5z"/>
		<path class="st9" d="M13.5,27.3h-0.4c0,0,0-0.1,0-0.2h0.4h0.4c0,0.1,0,0.2,0,0.2H13.5z"/>
		<path class="st9" d="M12,27.1h0.4h0.4c0,0.1,0,0.2,0,0.2h-0.4H12C12,27.3,12,27.2,12,27.1z"/>
		<path class="st9" d="M12.4,32.1H12c0,0,0-0.1,0-0.2h0.4h0.4c0,0.1,0,0.2,0,0.2H12.4z"/>
		<path class="st9" d="M13.4,23.3h-0.3c0,0,0-0.1,0-0.2h0.3h0.3c0,0.1,0,0.2,0,0.2H13.4z"/>
		<path class="st9" d="M8.9,27.7L8.9,27.7L8.9,27.7c0,0.3-0.5,1.6-1.4,1.6s-1.2-0.6-1.4-0.8c0-0.1,0-0.2,0-0.3c0,0,0.4,0.9,1.4,0.9
			C8.3,29.1,8.8,28.1,8.9,27.7z"/>
		<path class="st9" d="M15.8,32.1h-0.4c0,0,0-0.1,0-0.2h0.4h0.4c0,0.1,0,0.2,0,0.2H15.8z"/>
		<path class="st9" d="M14.3,23.3H14c0,0,0-0.1,0-0.2h0.3h0.3c0,0.1,0,0.2,0,0.2H14.3z"/>
		<path class="st9" d="M14.6,27.3h-0.4c0,0,0-0.1,0-0.2h0.4H15c0,0.1,0,0.2,0,0.2H14.6z"/>
		<path class="st9" d="M14.6,32.1h-0.4c0,0,0-0.1,0-0.2h0.4H15c0,0.1,0,0.2,0,0.2H14.6z"/>
		<path class="st9" d="M16.5,24.9c-0.7,0-1.1-1.1-1.1-1.2l0,0v-0.2l0,0l0,0c0,0.1,0.4,1.2,1.1,1.2c0.8,0,1.1-0.7,1.1-0.7
			c0,0.1,0,0.2,0,0.3C17.5,24.5,17.2,24.9,16.5,24.9z"/>
		<path class="st9" d="M9,32.1H8.6c0,0,0-0.1,0-0.2H9h0.4c0,0.1,0,0.2,0,0.2H9z"/>
		<path class="st9" d="M9.6,23.5L9.6,23.5L9.6,23.5v0.2l0,0c0,0.1-0.4,1.2-1.1,1.2c-0.6,0-1-0.4-1.1-0.6c0-0.1,0-0.2-0.1-0.3
			c0,0,0.3,0.7,1.1,0.7C9.2,24.7,9.6,23.6,9.6,23.5z"/>
		<path class="st9" d="M17.5,29.3c-0.9,0-1.4-1.4-1.4-1.5l0,0v-0.1c0.1,0.4,0.6,1.4,1.4,1.4c1,0,1.4-0.9,1.4-0.9c0,0.1,0,0.2,0,0.3
			C18.7,28.8,18.4,29.4,17.5,29.3z"/>
		<path class="st9" d="M11.6,23.3h-0.3c0,0,0-0.1,0-0.2h0.3h0.3c0,0.1,0,0.2,0,0.2H11.6z"/>
		<path class="st9" d="M15.7,21.4c-0.6,0-0.9-0.9-0.9-1c-0.6-1.8-2.3-1.8-2.3-1.8s-1.8,0-2.3,1.8c0,0.1-0.3,1-0.9,1
			c-0.5,0-0.7-0.3-0.8-0.4c0-0.1-0.1-0.2-0.1-0.3c0,0,0.2,0.6,0.9,0.6c0.6,0,0.9-0.9,0.9-1c0.6-1.8,2.3-1.8,2.3-1.8s1.8,0,2.3,1.8
			c0,0.1,0.3,1,0.9,1c0.7,0,0.9-0.6,0.9-0.6c0,0.1,0,0.2-0.1,0.3C16.5,21.1,16.2,21.4,15.7,21.4z"/>
		<path class="st9" d="M10.1,32.1H9.7c0,0,0-0.1,0-0.2h0.4h0.4c0,0.1,0,0.2,0,0.2H10.1z"/>
		<path class="st9" d="M10.7,23.3h-0.3c0,0,0-0.1,0-0.2h0.3H11c0,0.1,0,0.2,0,0.2H10.7z"/>
		<path class="st9" d="M9.7,27.1h0.4h0.4c0,0.1,0,0.2,0,0.2h-0.4H9.7C9.7,27.3,9.7,27.2,9.7,27.1z"/>
		<path class="st9" d="M10.8,27.1h0.4h0.4c0,0.1,0,0.2,0,0.2h-0.4h-0.4C10.8,27.3,10.8,27.2,10.8,27.1z"/>
		<path class="st9" d="M11.2,32.1h-0.4c0,0,0-0.1,0-0.2h0.4h0.4c0,0.1,0,0.2,0,0.2H11.2z"/>
	</g>
	
		<linearGradient id="SVGID_7_" gradientUnits="userSpaceOnUse" x1="910.4067" y1="26.699" x2="910.4067" y2="31.7565" gradientTransform="matrix(-1 0 0 -1 922.8885 42.2979)">
		<stop  offset="4.848480e-02" style="stop-color:#6AC4C4"/>
		<stop  offset="8.136153e-02" style="stop-color:#6DC6C6"/>
		<stop  offset="0.6965" style="stop-color:#9FE2E2"/>
		<stop  offset="1" style="stop-color:#B2EDED"/>
	</linearGradient>
	<polygon class="st10" points="4.1,10.5 12.5,10.5 20.9,10.5 23.6,15.5 12.5,15.5 12.5,15.5 1.4,15.5 	"/>
	<polygon class="st4" points="20.9,10.9 12.5,10.9 4.1,10.9 1.6,15.5 1.4,15.5 4.1,10.5 12.5,10.5 20.9,10.5 23.6,15.5 23.4,15.5 	
		"/>
	<polygon class="st11" points="12.5,15.1 12.5,15.1 23.4,15.1 23.6,15.5 12.5,15.5 12.5,15.5 1.4,15.5 1.6,15.1 	"/>
</g>
</svg>
