<?xml version="1.0" encoding="utf-8"?>
<!-- Generator: Adobe Illustrator 25.2.1, SVG Export Plug-In . SVG Version: 6.00 Build 0)  -->
<svg version="1.1" id="Слой_1" xmlns="http://www.w3.org/2000/svg" xmlns:xlink="http://www.w3.org/1999/xlink" x="0px" y="0px"
	 viewBox="0 0 27 35.4" style="enable-background:new 0 0 27 35.4;" xml:space="preserve">
<style type="text/css">
	.st0{display:none;}
	.st1{display:inline;}
	.st2{fill:url(#SVGID_1_);}
	.st3{fill:#4D4D4D;}
	.st4{fill:url(#SVGID_2_);}
	.st5{fill:#EE4230;}
	.st6{fill:url(#SVGID_3_);}
	.st7{opacity:0.5;fill:#FFFFFF;enable-background:new    ;}
	.st8{fill:url(#SVGID_4_);}
	.st9{fill:#5D6CC2;}
	.st10{fill:#DAEDED;}
	.st11{fill:url(#SVGID_5_);}
	.st12{opacity:0.5;fill:#5C9621;enable-background:new    ;}
	.st13{fill:#374BC2;}
	.st14{fill:url(#SVGID_6_);}
	.st15{fill:url(#SVGID_7_);}
	.st16{fill:url(#SVGID_8_);}
	.st17{fill:url(#SVGID_9_);}
	.st18{fill:url(#SVGID_10_);}
	.st19{fill:#2E4206;}
	.st20{fill:#E2EBD1;}
	.st21{fill:url(#SVGID_11_);}
	.st22{fill:url(#SVGID_12_);}
	.st23{fill:url(#SVGID_13_);}
	.st24{fill:url(#SVGID_14_);}
	.st25{fill:url(#SVGID_15_);}
	.st26{opacity:0.3;fill:url(#SVGID_16_);enable-background:new    ;}
</style>
<g>
	<g class="st0">
		<path class="st1" d="M-63,21.9h-2.3v-4.6h-4.2v4.6h-2.3v-11h2.3v4.3h4.2v-4.3h2.3C-63,10.9-63,21.9-63,21.9z"/>
		<path class="st1" d="M-55.8,20.9c-0.3,0.4-0.6,0.6-1,0.8c-0.4,0.2-0.9,0.3-1.5,0.3l0,0c-0.8,0-1.5-0.2-2-0.7
			c-0.5-0.4-0.8-1.1-0.8-1.8c0-0.8,0.3-1.4,0.9-1.8c0.6-0.4,1.4-0.6,2.3-0.6h1.6v-0.4c0-0.3-0.1-0.6-0.3-0.8
			c-0.2-0.2-0.5-0.3-0.9-0.3c-0.4,0-0.7,0.1-1,0.2c-0.3,0.1-0.6,0.4-0.8,0.7l-1.4-1.2c0.4-0.5,0.8-0.9,1.4-1.2
			c0.6-0.3,1.2-0.4,2-0.4c1,0,1.9,0.2,2.5,0.7c0.6,0.5,0.9,1.2,0.9,2.2v2.9c0,0.1,0.1,0.2,0.2,0.3c0.1,0.1,0.3,0.2,0.5,0.2v1.8h-0.7
			l0,0c-0.6,0-1.1-0.2-1.5-0.5C-55.5,21.2-55.7,21.1-55.8,20.9z M-56.5,19.9c0.2-0.2,0.4-0.5,0.4-0.9v-0.4h-1.5
			c-0.3,0-0.6,0.1-0.8,0.2c-0.2,0.1-0.3,0.3-0.3,0.6s0.1,0.5,0.3,0.6c0.2,0.2,0.5,0.2,0.8,0.2C-57.1,20.2-56.8,20.1-56.5,19.9z"/>
		<path class="st1" d="M-48.8,16v5.9h-2.3v-8h7v8h-2.3V16H-48.8z"/>
		<path class="st1" d="M-41.7,21.9v-8h2.3v4.7l2.2-4.7h2.8v8h-2.4v-4.3l-2,4.3H-41.7z"/>
		<path class="st1" d="M-28.3,15.9v6h-2.3v-6H-33V14h7.2v1.9H-28.3z"/>
		<path class="st1" d="M-22.5,17.8v4.1h-2.3V14h2.3v3.2l2.7-3.2h2.9l-3.2,3.5l3.3,4.4h-2.9L-22.5,17.8z"/>
		<path class="st1" d="M-15.1,21.9v-8h2.3v4.7l2.2-4.7h2.7v8h-2.3v-4.3l-2,4.3H-15.1z"/>
	</g>
	<g>
		<g>
			
				<linearGradient id="SVGID_1_" gradientUnits="userSpaceOnUse" x1="10.9075" y1="25.0387" x2="10.9075" y2="36.2387" gradientTransform="matrix(1 0 0 -1 0 37.2775)">
				<stop  offset="0" style="stop-color:#A80909"/>
				<stop  offset="0.8611" style="stop-color:#E63B2B"/>
				<stop  offset="1" style="stop-color:#F04431"/>
			</linearGradient>
			<path class="st2" d="M10.2,1.3L10.2,1.3L10.2,1.3C10,1.1,9.8,1,9.6,1C9.1,1,8.7,1.4,8.7,1.9v10.3h0.4h0.4V2.8V2.4V2l0.3,0.3
				l0.3,0.3L12.5,5l0.3-0.3l0.3-0.3L10.2,1.3z"/>
			<path class="st3" d="M9.6,1.4c0.2,0,0.5,0.1,0.6,0.3l0,0l0,0L13,4.5l0.2-0.2l-3-3l0,0l0,0C10,1.1,9.8,1,9.6,1
				C9.1,1,8.7,1.4,8.7,1.9v0.4C8.7,1.8,9.1,1.4,9.6,1.4z"/>
			
				<linearGradient id="SVGID_2_" gradientUnits="userSpaceOnUse" x1="9.1075" y1="3.8686" x2="9.1075" y2="24.9119" gradientTransform="matrix(1 0 0 -1 0 37.2775)">
				<stop  offset="0.4353" style="stop-color:#3A51D1"/>
				<stop  offset="0.6668" style="stop-color:#5B6ED1"/>
				<stop  offset="0.8696" style="stop-color:#7181D1"/>
				<stop  offset="1" style="stop-color:#7988D1"/>
			</linearGradient>
			<polygon class="st4" points="14.6,12.3 12.4,12.3 10.2,12.3 8.1,12.3 5.9,12.3 3.7,12.3 1.5,12.3 3.8,33.4 5.3,33.4 6.8,33.4 
				8.4,33.4 9.9,33.4 11.4,33.4 13,33.4 14.5,33.4 16.7,12.3 			"/>
			<polygon class="st5" points="13.2,32.2 11.6,32.2 10,32.2 8.3,32.2 6.7,32.2 5.1,32.2 3.6,32.2 3.8,33.4 5.3,33.4 6.8,33.4 
				8.4,33.4 9.9,33.4 11.4,33.4 13,33.4 14.5,33.4 14.6,32.2 			"/>
			<path class="st5" d="M8.7,12h0.9V6.3c-0.1,0-0.3,0-0.4,0c-0.2,0-0.3,0-0.4,0L8.7,12L8.7,12z"/>
			
				<linearGradient id="SVGID_3_" gradientUnits="userSpaceOnUse" x1="9.2075" y1="24.8293" x2="9.2075" y2="30.5751" gradientTransform="matrix(1 0 0 -1 0 37.2775)">
				<stop  offset="4.848480e-02" style="stop-color:#8ADEDE"/>
				<stop  offset="0.6592" style="stop-color:#B6F0F0"/>
				<stop  offset="1" style="stop-color:#C9F8F8"/>
			</linearGradient>
			<path class="st6" d="M16.8,12.4c-0.2-3.7-3.5-5.7-7.6-5.7s-7.5,2-7.6,5.7H16.8z"/>
			<path class="st7" d="M9.1,7.2c4,0,7.3,1.7,7.6,5.2l0,0c-0.2-3.7-3.5-5.7-7.6-5.7s-7.5,2-7.6,5.7l0,0C1.9,8.9,5.1,7.2,9.1,7.2z"/>
			
				<linearGradient id="SVGID_4_" gradientUnits="userSpaceOnUse" x1="9.1075" y1="3.184" x2="9.1075" y2="4.2369" gradientTransform="matrix(1 0 0 -1 0 37.2775)">
				<stop  offset="0.4353" style="stop-color:#3A51D1"/>
				<stop  offset="0.6668" style="stop-color:#5B6ED1"/>
				<stop  offset="0.8696" style="stop-color:#7181D1"/>
				<stop  offset="1" style="stop-color:#7988D1"/>
			</linearGradient>
			<path class="st8" d="M15,33.5c0,0.3-0.2,0.5-0.4,0.5h-11c-0.2,0-0.4-0.2-0.4-0.5l0,0c0-0.3,0.2-0.5,0.4-0.5h11
				C14.9,33,15,33.2,15,33.5L15,33.5z"/>
			<polygon class="st9" points="12.4,12.3 10.2,12.3 8.1,12.3 5.9,12.3 3.7,12.3 1.5,12.3 1.7,13.6 16.6,13.6 16.7,12.3 14.6,12.3 
							"/>
			<path class="st10" d="M1.5,12.4h15.3c0-0.3,0-0.5-0.1-0.7H1.6C1.6,11.9,1.5,12.2,1.5,12.4z"/>
			
				<linearGradient id="SVGID_5_" gradientUnits="userSpaceOnUse" x1="1.0625" y1="24.5387" x2="17.237" y2="24.5387" gradientTransform="matrix(1 0 0 -1 0 37.2775)">
				<stop  offset="0.4353" style="stop-color:#3A51D1"/>
				<stop  offset="0.6668" style="stop-color:#5B6ED1"/>
				<stop  offset="0.8696" style="stop-color:#7181D1"/>
				<stop  offset="1" style="stop-color:#7988D1"/>
			</linearGradient>
			<path class="st11" d="M17.2,12.7c0-0.4-0.2-0.6-0.4-0.6H1.5c-0.2,0-0.4,0.3-0.4,0.6l0,0c0,0.4,0.2,0.6,0.4,0.6h15.4
				C17,13.3,17.2,13,17.2,12.7L17.2,12.7z"/>
			<path class="st12" d="M3.6,33.3h11c0.2,0,0.3,0.2,0.4,0.4v-0.1c0-0.3-0.2-0.5-0.4-0.5h-11c-0.2,0-0.4,0.2-0.4,0.5v0.1
				C3.3,33.4,3.5,33.3,3.6,33.3z"/>
			<path class="st12" d="M1.5,12.3h15.4c0.2,0,0.4,0.2,0.4,0.5v-0.1c0-0.4-0.2-0.6-0.4-0.6H1.5c-0.2,0-0.4,0.3-0.4,0.6v0.1
				C1.1,12.5,1.3,12.3,1.5,12.3z"/>
			<path class="st13" d="M14.6,33.8h-11c-0.2,0-0.3-0.2-0.4-0.4v0.1c0,0.3,0.2,0.5,0.4,0.5h11c0.2,0,0.4-0.2,0.4-0.5v-0.1
				C15,33.7,14.8,33.8,14.6,33.8z"/>
			<path class="st13" d="M16.8,13.1H1.5c-0.2,0-0.4-0.2-0.4-0.5v0.1c0,0.4,0.2,0.6,0.4,0.6h15.4c0.2,0,0.4-0.3,0.4-0.6v-0.1
				C17.2,12.9,17,13.1,16.8,13.1z"/>
		</g>
		<g>
			<path class="st9" d="M22.1,16c0,0.2-0.2,0.4-0.4,0.4h-2.1c-0.2,0-0.4-0.2-0.4-0.4l0,0c0-0.2,0.2-0.4,0.4-0.4h2.1
				C21.9,15.7,22.1,15.8,22.1,16L22.1,16z"/>
			
				<linearGradient id="SVGID_6_" gradientUnits="userSpaceOnUse" x1="19.4075" y1="8.2823" x2="19.4075" y2="14.8092" gradientTransform="matrix(1 0 0 -1 0 37.2775)">
				<stop  offset="4.848490e-02" style="stop-color:#8ADEDE"/>
				<stop  offset="0.6592" style="stop-color:#B6F0F0"/>
				<stop  offset="1" style="stop-color:#C9F8F8"/>
			</linearGradient>
			<rect x="16" y="22.4" class="st14" width="6.8" height="6.5"/>
			
				<linearGradient id="SVGID_7_" gradientUnits="userSpaceOnUse" x1="19.4075" y1="2.906" x2="19.4075" y2="20.1859" gradientTransform="matrix(1 0 0 -1 0 37.2775)">
				<stop  offset="0" style="stop-color:#51740C"/>
				<stop  offset="0.1928" style="stop-color:#5B7F13"/>
				<stop  offset="0.5326" style="stop-color:#759D27"/>
				<stop  offset="0.9768" style="stop-color:#A0CC46"/>
				<stop  offset="1" style="stop-color:#A2CF48"/>
			</linearGradient>
			<path class="st15" d="M25.3,31.8c0,1.4-1.2,2.6-2.6,2.6h-6.6c-1.4,0-2.6-1.2-2.6-2.6V19.6c0-1.4,1.2-2.6,2.6-2.6h6.6
				c1.4,0,2.6,1.2,2.6,2.6V31.8z"/>
			
				<linearGradient id="SVGID_8_" gradientUnits="userSpaceOnUse" x1="19.4575" y1="1.8954" x2="19.4575" y2="3.2127" gradientTransform="matrix(1 0 0 -1 0 37.2775)">
				<stop  offset="4.848480e-02" style="stop-color:#8ADEDE"/>
				<stop  offset="0.6592" style="stop-color:#B6F0F0"/>
				<stop  offset="1" style="stop-color:#C9F8F8"/>
			</linearGradient>
			<path class="st16" d="M22.7,34.3h-6.6c-0.4,0-0.9-0.1-1.2-0.3c0.3,0.8,1,1.3,1.9,1.3h5.3c0.9,0,1.6-0.5,1.9-1.3
				C23.6,34.2,23.2,34.3,22.7,34.3z"/>
			<path class="st10" d="M22.1,35h-5.2c-0.7,0-1.3-0.3-1.6-0.8c-0.1,0-0.2-0.1-0.3-0.1c0.3,0.8,1,1.3,1.9,1.3h5.2
				c0.9,0,1.6-0.5,1.9-1.3c-0.1,0-0.2,0.1-0.3,0.1C23.3,34.7,22.7,35,22.1,35z"/>
			
				<linearGradient id="SVGID_9_" gradientUnits="userSpaceOnUse" x1="19.4575" y1="-213.419" x2="19.4575" y2="-212.1014" gradientTransform="matrix(1 0 0 1 0 229.5)">
				<stop  offset="0" style="stop-color:#C9F8F8"/>
				<stop  offset="0.3408" style="stop-color:#B6F0F0"/>
				<stop  offset="0.9515" style="stop-color:#8ADEDE"/>
			</linearGradient>
			<path class="st17" d="M22.7,17.1h-6.6c-0.4,0-0.9,0.1-1.2,0.3c0.3-0.8,1-1.3,1.9-1.3h5.3c0.9,0,1.6,0.5,1.9,1.3
				C23.6,17.2,23.2,17.1,22.7,17.1z"/>
			<path class="st7" d="M16.8,16.2h5.3c0.8,0,1.5,0.4,1.8,1.1c0,0,0.1,0,0.1,0.1c-0.3-0.8-1-1.3-1.9-1.3h-5.2
				c-0.9,0-1.6,0.5-1.9,1.3c0,0,0.1,0,0.1-0.1C15.4,16.7,16,16.2,16.8,16.2z"/>
			
				<linearGradient id="SVGID_10_" gradientUnits="userSpaceOnUse" x1="19.4075" y1="2.9048" x2="19.4075" y2="20.1851" gradientTransform="matrix(1 0 0 -1 0 37.2775)">
				<stop  offset="1.570758e-07" style="stop-color:#72A10E"/>
				<stop  offset="0.274" style="stop-color:#7BAA19"/>
				<stop  offset="0.7552" style="stop-color:#94C136"/>
				<stop  offset="1" style="stop-color:#A2CF48"/>
			</linearGradient>
			<path class="st18" d="M25.3,31.8c0,1.4-1.2,2.6-2.6,2.6h-6.6c-1.4,0-2.6-1.2-2.6-2.6V19.6c0-1.4,1.2-2.6,2.6-2.6h6.6
				c1.4,0,2.6,1.2,2.6,2.6V31.8z"/>
			<path class="st10" d="M16.1,16.9c-0.4,0-0.8,0.1-1.1,0.3c0,0.1-0.1,0.1-0.1,0.2c0.4-0.2,0.8-0.3,1.2-0.3h6.6
				c0.4,0,0.9,0.1,1.2,0.3c0-0.1-0.1-0.1-0.1-0.2c-0.3-0.2-0.7-0.3-1.1-0.3H16.1z"/>
			<path class="st19" d="M22.7,17.1h-6.6c-1.4,0-2.6,1.2-2.6,2.6v0.4c0-1.4,1.2-2.6,2.6-2.6h6.6c1.4,0,2.6,1.2,2.6,2.6v-0.5
				C25.3,18.2,24.2,17.1,22.7,17.1z"/>
			<path class="st20" d="M22.7,33.8h-6.6c-1.4,0-2.6-1.2-2.6-2.6v0.6c0,1.4,1.2,2.6,2.6,2.6h6.6c1.4,0,2.6-1.2,2.6-2.6v-0.6
				C25.3,32.6,24.2,33.8,22.7,33.8z"/>
			
				<linearGradient id="SVGID_11_" gradientUnits="userSpaceOnUse" x1="19.4575" y1="6.7965" x2="19.4575" y2="16.2954" gradientTransform="matrix(1 0 0 -1 0 37.2775)">
				<stop  offset="4.848480e-02" style="stop-color:#CCEDED"/>
				<stop  offset="0.6322" style="stop-color:#E6F5F5"/>
				<stop  offset="1" style="stop-color:#F0F8F8"/>
			</linearGradient>
			<path class="st21" d="M23.9,29.7c0,0.4-0.3,0.7-0.7,0.7h-7.5c-0.4,0-0.7-0.3-0.7-0.7v-8c0-0.4,0.3-0.7,0.7-0.7h7.5
				c0.4,0,0.7,0.3,0.7,0.7V29.7z"/>
			<path class="st7" d="M23.2,20.9h-7.5c-0.4,0-0.7,0.3-0.7,0.7V22c0-0.4,0.3-0.7,0.7-0.7h7.5c0.4,0,0.7,0.3,0.7,0.7v-0.4
				C23.9,21.3,23.6,20.9,23.2,20.9z"/>
			<path class="st10" d="M23.2,30.1h-7.5c-0.4,0-0.7-0.3-0.7-0.7v0.4c0,0.4,0.3,0.7,0.7,0.7h7.5c0.4,0,0.7-0.3,0.7-0.7v-0.4
				C23.9,29.7,23.6,30.1,23.2,30.1z"/>
			<g>
				
					<linearGradient id="SVGID_12_" gradientUnits="userSpaceOnUse" x1="19.4075" y1="7.7116" x2="19.4075" y2="15.3803" gradientTransform="matrix(1 0 0 -1 0 37.2775)">
					<stop  offset="0" style="stop-color:#FA901E"/>
					<stop  offset="0.1997" style="stop-color:#FC9923"/>
					<stop  offset="0.5671" style="stop-color:#FEA429"/>
					<stop  offset="1" style="stop-color:#FFA72B"/>
				</linearGradient>
				<circle class="st22" cx="19.4" cy="25.7" r="3.8"/>
				
					<linearGradient id="SVGID_13_" gradientUnits="userSpaceOnUse" x1="19.4075" y1="8.0387" x2="19.4075" y2="15.0387" gradientTransform="matrix(1 0 0 -1 0 37.2775)">
					<stop  offset="0" style="stop-color:#FFB45E"/>
					<stop  offset="3.022146e-02" style="stop-color:#FFB85F"/>
					<stop  offset="0.2461" style="stop-color:#FFD166"/>
					<stop  offset="0.4726" style="stop-color:#FFE26A"/>
					<stop  offset="0.7148" style="stop-color:#FFED6D"/>
					<stop  offset="1" style="stop-color:#FFF06E"/>
				</linearGradient>
				<circle class="st23" cx="19.4" cy="25.7" r="3.5"/>
				
					<linearGradient id="SVGID_14_" gradientUnits="userSpaceOnUse" x1="19.4075" y1="8.4666" x2="19.4075" y2="14.6261" gradientTransform="matrix(1 0 0 -1 0 37.2775)">
					<stop  offset="0" style="stop-color:#FAA023"/>
					<stop  offset="0.205" style="stop-color:#FCB633"/>
					<stop  offset="0.4433" style="stop-color:#FEC740"/>
					<stop  offset="0.699" style="stop-color:#FFD248"/>
					<stop  offset="1" style="stop-color:#FFD54A"/>
				</linearGradient>
				<circle class="st24" cx="19.4" cy="25.7" r="3.1"/>
				
					<linearGradient id="SVGID_15_" gradientUnits="userSpaceOnUse" x1="19.4075" y1="8.4666" x2="19.4075" y2="14.6261" gradientTransform="matrix(1 0 0 -1 0 37.2775)">
					<stop  offset="0" style="stop-color:#FFB45E"/>
					<stop  offset="3.022146e-02" style="stop-color:#FFB85F"/>
					<stop  offset="0.2461" style="stop-color:#FFD166"/>
					<stop  offset="0.4726" style="stop-color:#FFE26A"/>
					<stop  offset="0.7148" style="stop-color:#FFED6D"/>
					<stop  offset="1" style="stop-color:#FFF06E"/>
				</linearGradient>
				<path class="st25" d="M21.7,23.6c-0.1-0.1-0.1-0.1-0.2-0.2l-1.9,1.9v-2.7h-0.1h-0.1v2.8l-1.9-1.9c-0.1,0.1-0.1,0.1-0.2,0.2
					l1.8,1.9h-2.8v0.1v0.1h2.8l-1.9,1.9c0.1,0.1,0.1,0.1,0.2,0.2l1.9-1.9v2.7h0.1h0.1V26l1.9,1.9c0.1-0.1,0.1-0.1,0.2-0.2l-1.9-1.9
					h2.8v-0.1v-0.1h-2.8L21.7,23.6z"/>
				
					<linearGradient id="SVGID_16_" gradientUnits="userSpaceOnUse" x1="31.8215" y1="-62.0146" x2="31.8215" y2="-55.8567" gradientTransform="matrix(0.9223 -0.3865 -0.3865 -0.9223 -32.5968 -16.363)">
					<stop  offset="0" style="stop-color:#FFB45E"/>
					<stop  offset="3.022146e-02" style="stop-color:#FFB85F"/>
					<stop  offset="0.2461" style="stop-color:#FFD166"/>
					<stop  offset="0.4726" style="stop-color:#FFE26A"/>
					<stop  offset="0.7148" style="stop-color:#FFED6D"/>
					<stop  offset="1" style="stop-color:#FFF06E"/>
				</linearGradient>
				<path class="st26" d="M20.7,22.9c-0.1,0-0.2-0.1-0.2-0.1l-1,2.5l-1.1-2.5h-0.1c0,0-0.1,0-0.1,0.1l1.1,2.5l-2.5-1
					c0,0.1-0.1,0.2-0.1,0.2l2.5,1l-2.5,1.1v0.1c0,0,0,0.1,0.1,0.1l2.5-1.1l-1,2.5c0.1,0,0.2,0.1,0.2,0.1l1-2.5l1.1,2.5h0.1
					c0,0,0.1,0,0.1-0.1l-1.1-2.5l2.5,1c0-0.1,0.1-0.2,0.1-0.2l-2.5-1l2.5-1.1v-0.1c0,0,0-0.1-0.1-0.1l-2.5,1.1L20.7,22.9z"/>
			</g>
		</g>
	</g>
</g>
</svg>
